<svg xmlns="http://www.w3.org/2000/svg" xmlns:xlink="http://www.w3.org/1999/xlink" width="295.56" height="168.76" xmlns:v="https://vecta.io/nano"><style><![CDATA[.B{fill:#fff}.C{fill:#fb0}.D{fill:#444}.E{fill:#999}.F{fill:#ddd}.G{fill:#f5f5f5}]]></style><g><g><path d="M34.22,146.44c-10.57-2.89-15.24-14.79-13.36-24.97,1.66-10.13,7.3-19.67,15.43-25.95,3.52-2.7,7.53-4.74,11.83-5.83,11.73-2.93,23.92,1.87,35.85.13,2.78-.37,5.53-.99,8.2-1.85,10.41-3.34,22.79-11.94,25.81-22.94,1.57-6.23-.32-12.78,1.11-19.02.41-1.92,1.05-3.78,1.87-5.56,5.49-11.97,18.18-18.58,30.5-21.52,16.24-3.97,34.06-5.03,49.53,1.92,10.34,4.69,19.39,13.07,23.23,23.91,4.82,13.6.57,28.86,5.74,42.36,3.7,9.64,11.84,16.89,16.26,26.23,1.59,3.34,2.74,6.95,2.9,10.65.55,9.33-6.44,17.4-14.51,21.19-3.5,1.71-7.25,2.85-11.06,3.69-16.7,3.43-33.83,3.62-50.83,3.95" class="G"/><g><path d="M164.75,83.75c.07.43-.04.87-.06,1.3-.07.69-.07,1.43-.09,2.12,0,.6-.18,1.17-.58,1.63-4.33,5.38-10.8,9.18-17.05,12.19-2.18.8-4.46,1.32-6.68,2.04-3,.96-5.85,2.56-9,2.94-1.58.18-3.15.43-4.75.4-.55,0-1.11-.02-1.66,0-1.3.03-2.59.37-3.89.18-2.91-.41-5.45-2.46-6.8-5.02-.32-.58-.16-1.22-.18-1.85-.11-1.04-.66-1.99-.89-3-.71-2.63-1.83-5.14-2.54-7.76-.15-.48.05-.91.4-1.24.5-.52,1-1.01,1.5-1.51,1.42-1.4,2.91-2.77,4.46-4.01,6.99-5.76,13.01-6.39,21.57-7.81,5.69-.89,11.36-2,17.08-2.65,1.18-.11,2.37-.18,3.54-.16.27,0,.56.03.79.17.22.13.36.38.45.63.23.64.39,1.33.64,1.96.85,1.97,1.85,3.9,2.51,5.94.37,1.18.88,2.32,1.24,3.49v.02Z" class="F"/></g><path d="M164.77 83.79c.08.68-.11 1.39-.11 2.08-.04.93 0 1.84-.18 2.73-.3 1.41-1.09 2.7-2.07 3.76-.81.75-1.44 1.67-2.23 2.45-.47.47-1.1.84-1.63 1.28l-1 .81c-1.92 1.37-4.27 1.82-6.41 2.73-4.21 1.8-8.76 2.62-13.02 4.29-1.83.72-3.67 1.52-5.58 1.94-1.94.34-3.91.59-5.88.61-.59 0-1.19-.02-1.78 0-1.23.03-2.45.34-3.68.2-1.89-.19-3.61-1.18-5-2.43-.81-.74-1.43-1.67-1.97-2.62-.39-.71-.07-1.5-.25-2.26-.18-.79-.53-1.52-.74-2.29-.54-2-1.27-3.95-1.97-5.89-.18-.53-.32-1.07-.48-1.61-.31-1-.74-1.92-1-2.92-.38-1.37-.73-2.78-1.23-4.12-.34-.9-.67-1.8-.93-2.72-.34-1.34-.77-2.64-1.28-3.95-.29-.8-.56-1.6-.91-2.37-.56-1.14-.95-2.35-1.3-3.57-.41-1.23-.89-2.43-1.15-3.7-.48-1.8-.97-3.6-1.56-5.37-.29-.82-.51-1.66-.79-2.47-.27-.77-.61-1.52-.92-2.27-.42-.98-.71-2.01-1.14-2.99-.22-.51-.42-1.03-.61-1.55-.19-.49-.15-.9.42-1.03.49-.12 1.03-.19 1.51-.39.86-.38 1.76-.63 2.67-.89.95-.3 1.89-.64 2.86-.9 1.17-.3 2.27-.83 3.43-1.18 1.47-.4 3-.57 4.46-1.04 1.07-.3 2.06-.83 3.11-1.19 1.62-.51 3.31-.88 4.91-1.47l12.82-4.13c1.57-.49 3.2-.82 4.75-1.35 2.28-.72 4.64-1.39 6.8-2.42.7-.36 1.04-.16 1.35.63.21.45.33.94.46 1.42.54 2.06 1.53 3.9 2.35 5.85 1.39 4.29 3.25 8.41 4.97 12.58.45 1.09.8 2.21 1.22 3.31.68 1.73 1.33 3.5 1.82 5.3.36 1.3.89 2.54 1.25 3.84.15.56.26 1.13.44 1.69.35 1.06.84 2.01 1.12 3.08.22.8.54 1.55.9 2.3.73 1.55 1.42 3.09 1.95 4.69.37 1.19.9 2.35 1.24 3.53v.02z" class="E"/><path d="M162.42 84.01c.05.24.05.5.02.76-.06.59-.08 1.27-.09 1.89 0 .44-.02.88-.09 1.31-.13.88-.55 1.54-1.03 2.24-.4.55-.87.94-1.3 1.43l-.85 1c-.55.7-1.28 1.1-1.98 1.67l-.83.69c-1.24.87-2.77 1.37-4.22 1.83-.75.24-1.48.56-2.21.87-1.19.49-2.44.89-3.74 1.3l-8.77 2.78c-1.9.75-3.98 1.67-5.9 1.96l-4.7.44c-.7 0-1.4-.03-2.1 0-1.17.03-2.32.36-3.49.16-1.75-.32-3.43-1.53-4.39-3.02-.52-.72-.3-1.67-.52-2.51-.11-.47-.27-.92-.44-1.37-.39-1.05-.65-2.16-1.01-3.23l-1.3-3.67-1.16-3.5-1.8-5.81c-.43-1.1-.74-2.23-1.04-3.36-.28-.96-.62-1.85-.97-2.79-.41-1.21-.89-2.39-1.42-3.55-.34-.8-.54-1.68-.82-2.5l-.84-2.54-.64-2.42-.62-2.23-1.19-3.73-1.95-5.08c-.32-.82.33-1.04 1.03-1.24l2.14-.66 2.92-.9 2.27-.82 4.29-.99c1.36-.34 2.59-1.03 3.92-1.44l8.11-2.47c3.26-.98 6.47-2.14 9.69-3.15 3.09-.81 6.16-1.74 9.17-2.82.47-.18.78-.07.94.41.15.44.3.88.47 1.3.48 1.27 1.15 2.65 1.7 3.93.47 1.23.82 2.49 1.31 3.74 1.29 3.27 2.72 6.51 4.03 9.78.68 1.98 1.5 3.94 2.16 5.93l.83 2.73c.27.88.68 1.87.91 2.75.19.75.34 1.49.62 2.22.2.56.44 1.07.64 1.6.33.94.58 1.99 1.01 2.89.74 1.59 1.53 3.25 2.13 5 .33 1.06.79 2.13 1.12 3.17v.02z" class="B"/><path d="M164.34,83.79c-.1,4.17-1.12,7.29-4.09,10.31-2.77,2.82-6.27,3.99-9.86,5.37-3.21,1.24-6.54,2.05-9.8,3.12-4.2,1.38-7.95,3.11-12.46,3.39-3.97.25-8.5.91-11.64-2.05-2.39-2.25-2.89-7.4-3.98-10.54-2.1-6.04-3.71-12.27-5.98-18.25-2.39-6.32-3.98-12.87-6.42-19.16-.38-.97-1.25-2.34-1.3-3.37-.1-2.18,1.38-2.15,3.17-2.75,3.23-1.07,6.45-2.12,9.76-2.89,6.6-1.53,13.22-4.14,19.67-6.27,3.2-1.06,6.45-1.91,9.66-2.95.9-.29,2.57-1.3,3.52-1.24,2.78.18,2.81,2.37,3.62,4.28,3.32,7.84,6.65,15.84,9.24,23.96,1.04,3.27,1.97,6.57,3.2,9.78,1.16,3.03,3.14,6.14,3.7,9.38.09.54.92.31.83-.23-.65-3.73-2.96-7.55-4.27-11.07-1.48-3.97-2.51-8.09-3.96-12.08-1.59-4.37-3.49-8.61-5.17-12.95-.79-2.03-1.47-4.07-2.33-6.07s-1.29-4.48-2.57-6.28c-.12-.17-.28-.23-.48-.2-2.94.43-5.91,2.07-8.8,2.91-3.59,1.04-7.13,2.18-10.69,3.32-5.86,1.88-11.7,3.82-17.64,5.37-3.21.84-6.34,2.14-9.51,3.1-.73.22-2.01.27-2.31,1.13-.42,1.16,1.24,3.84,1.64,4.86,1.18,3.05,2.24,6.1,3.11,9.26,3.3,12.02,8.12,23.62,11.41,35.65,3.05,11.16,19.37,5.47,26.56,3.02,5.74-1.95,12.58-3.01,17.69-6.44,5.16-3.46,7.2-7.36,7.34-13.41.01-.55-.84-.55-.86,0Z" class="E"/><g><path d="M164.75,83.75c.07.43-.04.87-.06,1.3-.07.69-.07,1.43-.09,2.12,0,.6-.18,1.17-.58,1.63-4.33,5.38-10.8,9.18-17.05,12.19-2.18.8-4.46,1.32-6.68,2.04-3,.96-5.85,2.56-9,2.94-1.58.18-3.15.43-4.75.4-.55,0-1.11-.02-1.66,0-1.3.03-2.59.37-3.89.18-2.91-.41-5.45-2.46-6.8-5.02-.32-.58-.16-1.22-.18-1.85-.11-1.04-.66-1.99-.89-3-.71-2.63-1.83-5.14-2.54-7.76-.15-.48.05-.91.4-1.24.5-.52,1-1.01,1.5-1.51,1.42-1.4,2.91-2.77,4.46-4.01,6.99-5.76,13.01-6.39,21.57-7.81,5.69-.89,11.36-2,17.08-2.65,1.18-.11,2.37-.18,3.54-.16.27,0,.56.03.79.17.22.13.36.38.45.63.23.64.39,1.33.64,1.96.85,1.97,1.85,3.9,2.51,5.94.37,1.18.88,2.32,1.24,3.49v.02Z" class="F"/></g><path d="M121.89 104c-4.38-.64-4.96-4.27-6.06-7.74l-2.59-7.93c-1.76-5.29-3.26-10.66-5.29-15.86-1.24-3.18-2.13-6.37-3.07-9.64-.65-2.24-3.72-7.99-2.66-9.93 1.17-2.14 6.64-2.91 9.04-3.49 3.04-.73 5.91-1.84 8.91-2.73 6.38-1.89 12.67-4.08 19.05-5.96 1.15-.34 2.98-1.34 4.21-1.35 1.9-.01 2.31 1.39 2.9 2.81 1.34 3.21 2.48 6.49 3.83 9.7 2.55 6.09 4.67 12.23 6.64 18.53.65 2.07 1.4 4.14 2.26 6.14 1.26 2.92 3.63 6.95 2.88 10.32-1.78 7.93-11.17 10.31-17.86 12.33-3.61 1.09-7.1 2.57-10.71 3.64s-7.91 1.25-11.56 1.16c-.55-.01-.55.84 0 .86 3.13.07 6.66-.12 9.73-.68 4.1-.74 8.12-2.76 12.12-3.96 6.06-1.81 12.33-3.44 16.63-8.3 3.94-4.45 2.48-8.84.36-13.93-3.07-7.4-5.06-15.14-8.08-22.58L148 43.83c-.47-1.22-1.2-5.06-2.7-5.74-.75-.34-2.1.48-2.71.69-1.83.61-3.67 1.15-5.52 1.68-4.07 1.16-8.07 2.56-12.11 3.83l-11.38 3.72c-1.72.51-3.48.77-5.19 1.31-1.85.58-5.34 1.03-6.78 2.17-1.21.96-1.14.93-.68 2.53 1.14 3.95 2.78 7.76 3.88 11.74s2.86 7.84 4.14 11.84l3.89 12.27c1.19 3.52 2.08 7.14 3.19 10.64.8 2.51 3.14 3.96 5.67 4.33.54.08.77-.75.23-.83z" class="F"/><g fill="#bbb"><path d="M132.18 41.65c-.57-1.69-.62-3.78-2.66-3.98-1.18-.12-3.34.85-4.5 1.17l-5.31 1.68c-2.02.68-6.55 1.13-7.39 3.39-.35.94.38 3.92 1.28 4.53.7.47 1.26.18 2.02.06 1-.15 2.7-1.36 3.77-.81-.89-.46 1.5 2.24 1.08 1.82 1.41 1.39 3.88 1.69 5.65.86 2.6-1.22 2.13-3.41 3.37-5.43.79-1.3 3.34-1.33 2.69-3.29-.17-.52-1-.3-.83.23.21.63-2.66 1.63-3.31 2.11-.32.24.1.82-.04 1.05-1.06 4.41-3.16 5.86-6.3 4.34l-1.57-2.13c.11.08-.38-.61-.55-.67-.84-.33-1.82.27-2.57.54-1.02.35-2.58.86-3.33-.41-.92-1.54 1.44-3.56 2.59-4.16 1.55-.81 3.59-1.2 5.26-1.74l5.23-1.53c1.19-.3 2.76-1.03 3.82.18.43.49.56 1.82.77 2.42.18.52 1 .3.83-.23z"/><path d="M131.77 41.77l-.56-1.73c-.26-.85-.5-2.2-1.68-1.94-.66.09-1.26.39-1.89.56l-1.95.45-2.16.62a10.93 10.93 0 0 1-1.56.51c-1.09.28-2.13.71-3.19 1.06l-1.68.5-1.85.66c-.71.28-1.54.39-2.15.87-.49.41-.45 1.14-.31 1.72.13.61.25 1.22.5 1.78.31.52.34 1.55 1.13 1.46 1.53-.14 2.9-.89 4.35-1.33.48-.15.86-.03 1.02.51.12.35.25.7.44 1.02 1.11 1.88 3.79 2.34 5.69 1.51 1.88-.83 3.13-3.06 2.51-5.07-.17-.5-.14-.86.38-1 .72-.18 1.44-.39 2.11-.72.88-.33 1.24-.49.87-1.42v-.03z"/></g><g class="E"><use xlink:href="#B"/><use xlink:href="#B" x="3.96" y="11.81"/></g><g class="C"><path d="M110.78 60.86c.74 1.05 1.92 3.7 3.32 2.35.83-.8 1.58-1.91 2.22-2.86.84-1.22 1.36-2.98 2.65-3.84.46-.3.03-1.05-.43-.74-1.39.93-1.97 2.62-2.85 3.98-.37.57-1.51 2.42-2.02 2.63-.96.39-1.73-1.36-2.16-1.96-.31-.45-1.06-.02-.74.43h0zm4.9 12.7c.49.62 1.27 1.9 2.13 2.07.9.18 1.55-.91 2.06-1.44 1.92-2 3.15-4.52 4.89-6.69.34-.43-.26-1.04-.61-.61-1.17 1.46-2.22 2.98-3.21 4.57-.53.87-1.37 2.12-2.25 2.71-.49.33-.54.62-1.21.14-.44-.31-.85-.95-1.19-1.38s-.95.18-.61.61h0z"/></g><g class="F"><path d="M121.2 60.02c7.88-2.47 16.05-5.03 23.71-8.12 1.26-.51.71-2.58-.57-2.06-7.66 3.09-15.82 5.65-23.71 8.12-1.31.41-.75 2.48.57 2.06h0zm6.13 8.86c3.41-1.92 7.37-2.61 11.01-3.97 3.34-1.25 6.71-2.37 10.09-3.51 1.3-.44.74-2.5-.57-2.06l-11.04 3.85c-3.67 1.33-7.28 1.99-10.58 3.84-1.2.67-.12 2.52 1.08 1.85h0zm1.56 4.91c3.11-1.09 6.46-2.77 9.72-3.31 1.36-.23.78-2.29-.57-2.06-3.26.55-6.6 2.22-9.72 3.31-1.29.45-.74 2.52.57 2.06h0z"/></g><g class="D"><path d="M112.09 45.03c.24 1 .52 3.45 1.67 3.89.85.33 2.15-.23 2.96-.4.4-.08 1.24-.43 1.66-.35.92.18.67.35 1.28 1.09 2.25 2.72 5.69 2.58 8.21.21.4-.38-.2-.98-.61-.61-1.29 1.21-2.83 1.88-4.63 1.35-1.45-.43-1.67-.96-2.62-2.08-.41-.48-.3-.76-.87-.94-.51-.17-1.09.17-1.59.28-2.54.6-4.01-.07-4.64-2.69-.13-.54-.96-.31-.83.23h0zm12.76 1.34c-.04.09.01 0 .02-.02l-.03.04s.03-.03 0 0c-.06.01.01-.01.03-.01-.07.02-.1.05-.18.02-.06-.02-.1-.06-.13-.11.04.06-.03-.03 0 0 0 .03 0 .03 0-.02v.04-.02c0 .03 0 .03 0-.01l-.02.03s.03-.03 0-.01c-.02.02-.02.02.01-.01l.12-.03c.07.01.08.01.05 0-.03 0-.02 0 .05.02l.05.04s-.02-.02 0 0c.02.03.03.03 0 0l.02.06-.02-.07v.02-.03c0 .08 0 0 0-.02 0-.04.05-.09 0 0 0-.02.03-.08 0-.02-.02.05-.01.01.01 0-.02.03-.05.05-.08.05-.04.01-.04.02-.01 0h-.07-.05c.02 0-.07-.04-.09-.06.06.06-.05-.08 0 0 .04.07-.03-.07 0-.02.03.06 0 .02 0-.02 0 .02.01.07 0 .08.01-.07.01-.08 0-.05 0 .03 0 .02.02-.04-.04.06.06-.05.02-.02-.02.02.07-.05.1-.05.12-.03 0 0-.05 0-.23 0-.43.19-.43.43s.2.43.43.43c.24 0 .46-.06.62-.27s.18-.46.12-.7c-.14-.51-.79-.75-1.16-.32-.28.33-.31.91.03 1.22.25.23.61.21.87 0a.9.9 0 0 0 .28-.86c-.07-.3-.33-.54-.66-.53-.35.01-.58.3-.71.6-.09.21.1.47.3.53.25.07.44-.08.53-.3h0z"/></g><g class="F"><path d="M42.44 143.17c.03.12.03.22 0 .34l-2.93 8.78c-.09.46-.63.38-1.01.46a49.11 49.11 0 0 1-5.29.35c-7.63.1-15.3-1.58-22.16-4.91-.34-.17-.63-.37-.14-.57 6.4-2.16 13.33-2.38 20.04-1.4.79.1 1.78.31 2.52.41-.02-.01-.17-.06-.38-.12-8.97-2.66-17.04-9.95-19.64-18.99.08-.16.48.02.67.1 6.52 2.92 12.97 6.16 18.57 10.53.79.6 1.62 1.34 2.37 1.96.12.07-.25-.33-.3-.39-3.7-4.3-5.99-9.82-6.34-15.49-.03-.44-.02-.93.54-.48 6.17 5.04 10.95 11.85 13.47 19.4v.02z"/><path d="M32.58 153.17c-7.46 0-14.9-1.7-21.56-4.92-.22-.11-.45-.24-.44-.41 0-.11.11-.21.31-.29 5.94-2.01 12.69-2.48 20.08-1.41.4.05.86.13 1.31.21.08.01.16.03.24.04-4.29-1.37-8.32-3.76-11.68-6.94-3.62-3.43-6.19-7.55-7.45-11.92v-.03c.1-.22.44-.1.76.05 5.91 2.65 12.74 5.97 18.58 10.54.55.42 1.11.9 1.66 1.36l.18.15c-3.67-4.33-5.88-9.78-6.23-15.38-.02-.32-.02-.62.15-.71.12-.06.28 0 .5.17 6.21 5.06 11 11.97 13.5 19.44v.02c.04.14.04.25 0 .37l-1.96 5.86-.98 2.92c-.08.4-.46.44-.79.47-.09 0-.18.02-.27.04-1.75.21-3.53.33-5.3.35h-.64zm-9.08-7.44c-4.5 0-8.71.65-12.56 1.96-.2.08-.22.14-.22.16 0 .04.04.12.36.28 6.64 3.21 14.06 4.9 21.5 4.9h.64c1.76-.02 3.54-.14 5.28-.35.08-.02.18-.03.27-.04.31-.03.61-.06.67-.36l.98-2.93 1.95-5.86a.51.51 0 0 0 0-.3v-.02c-2.49-7.44-7.27-14.32-13.45-19.36-.23-.19-.32-.17-.35-.16-.08.04-.1.23-.08.58.34 5.63 2.59 11.12 6.32 15.45a.95.95 0 0 0 .11.13c.22.24.26.29.21.36-.01.01-.05.05-.11.01l-.72-.6c-.55-.46-1.11-.94-1.66-1.36-5.84-4.56-12.65-7.88-18.55-10.53-.39-.18-.52-.17-.56-.15 1.25 4.33 3.81 8.41 7.4 11.82 3.49 3.31 7.7 5.76 12.18 7.08.34.1.38.12.4.13l.19.16-.25-.03a27.52 27.52 0 0 1-1.21-.2c-.44-.08-.9-.16-1.3-.21-2.56-.37-5.05-.56-7.45-.56z"/></g><path d="M42.29 143.14a.7.7 0 0 1-.01.38l-.77 2.32-2.17 6.53c-.1.27-.4.26-.68.31a46.34 46.34 0 0 1-5.77.39c-.57.03-.94-.3-1.06-.85-.67-2.53-.7-6.41 1.1-8.49.25-.26.54-.46.86-.62.32-.15.88-.45.63-.86-.31-.43-.94-.4-1.36-.67-.63-.36-.93-1.09-1.02-1.78-.11-.91-.05-1.84-.07-2.75 0-1.9-.04-3.99.96-5.68.24-.41.55-.78.9-1.1.48-.46.98-.66 1.43-.07 3.04 3.85 5.48 8.25 7.02 12.92v.02z" class="E"/><path d="M263.41 140.62c-7.38 7.77-18.62 11.19-29.11 13.25-2 .51-4.07 1.5-6.18 1.72-1.23.13-2.43-.12-3.66-.15-1.55-.09-13.36-.36-12.28-1.93l8.66-13.65c.14-.29.15-.59.24-.94 2.02-9.76 9.4-18.84 19.13-21.68.72-.17.82.07.52.7-3.36 7.46-8.49 14.55-14.3 20.02.05-.05.16-.15.3-.27 6.68-6.16 13.77-12.46 22.63-15.22 2.69-.84 5.48-1.33 8.3-1.33.28 0 .5.05.57.19.08.14 0 .38-.15.64-2.53 4.84-6.9 8.54-11.56 11.47-3.82 2.36-7.87 5.64-11.91 8.71-1.25.96-2.72 2.01-3.95 2.89.12-.06.4-.22.57-.32 1.62-.88 2.86-1.21 4.76-1.79 1.35-.39 3.4-1.05 4.96-1.56 3.49-1.07 7.58-1.63 11.33-1.59 3.54 0 7.12-.28 10.58.52.29.07.52.15.56.29h0z" class="F"/><g class="B"><path d="M226.85 151.42c11.43-3.03 22.59-7.82 34.26-9.8.48-.08.28-.81-.2-.73-11.66 1.98-22.83 6.77-34.26 9.8-.47.12-.27.86.2.73h0zm2-9.89c4.12-4.02 8.45-7.84 13.21-11.08 3.83-2.61 8.51-4.4 12-7.41.37-.32-.17-.85-.54-.54-3.96 3.41-9.34 5.34-13.61 8.43s-7.93 6.48-11.6 10.06c-.35.34.19.88.54.54h0zm-1.68-8.14c1.59-2.33 2.72-4.95 4.58-7.11 1.75-2.03 3.63-4.06 5.66-5.81.37-.32-.17-.85-.54-.54-2.03 1.76-3.97 3.8-5.73 5.83-1.89 2.17-3.01 4.89-4.62 7.25-.28.4.38.78.65.38h0z"/></g><use xlink:href="#C" class="C"/><use xlink:href="#D" class="B"/><use xlink:href="#E" class="C"/><g class="B"><use xlink:href="#F"/><use xlink:href="#G"/><use xlink:href="#H"/><use xlink:href="#I"/><use xlink:href="#J"/><use xlink:href="#K"/><use xlink:href="#L"/><use xlink:href="#M"/></g><use xlink:href="#C" x="3.84" y="-6.54" class="C"/><use xlink:href="#D" x="3.85" y="-6.54" class="B"/><use xlink:href="#E" x="3.84" y="-6.54" class="C"/><g class="B"><use xlink:href="#F" x="3.85" y="-6.54"/><use xlink:href="#G" x="3.85" y="-6.53"/><use xlink:href="#H" x="3.85" y="-6.54"/><use xlink:href="#I" x="3.84" y="-6.54"/><use xlink:href="#J" x="3.84" y="-6.54"/><use xlink:href="#K" x="3.84" y="-6.54"/><use xlink:href="#L" x="3.84" y="-6.54"/><use xlink:href="#N"/></g><use xlink:href="#C" y="-12.76" class="C"/><use xlink:href="#D" y="-12.76" class="B"/><use xlink:href="#E" y="-12.75" class="C"/><g class="B"><use xlink:href="#F" y="-12.75"/><use xlink:href="#G" y="-12.75"/><use xlink:href="#H" y="-12.75"/><use xlink:href="#I" y="-12.76"/><use xlink:href="#J" y="-12.76"/><use xlink:href="#K" y="-12.76"/><use xlink:href="#L" y="-12.76"/><use xlink:href="#M" y="-12.75"/></g><use xlink:href="#C" x="10.01" y="-18.13" class="C"/><use xlink:href="#D" x="10.02" y="-18.13" class="B"/><use xlink:href="#E" x="10.02" y="-18.13" class="C"/><g class="B"><use xlink:href="#F" x="10.02" y="-18.13"/><use xlink:href="#G" x="10.02" y="-18.12"/><use xlink:href="#H" x="10.02" y="-18.13"/><use xlink:href="#I" x="10.02" y="-18.13"/><use xlink:href="#J" x="10.02" y="-18.13"/><use xlink:href="#K" x="10.01" y="-18.13"/><use xlink:href="#L" x="10.01" y="-18.13"/><use xlink:href="#N" x="6.18" y="-11.58"/></g><use xlink:href="#C" x="3.89" y="-24.22" class="C"/><use xlink:href="#D" x="3.9" y="-24.22" class="B"/><use xlink:href="#E" x="3.89" y="-24.22" class="C"/><g class="B"><use xlink:href="#F" x="3.9" y="-24.22"/><use xlink:href="#G" x="3.9" y="-24.21"/><use xlink:href="#H" x="3.9" y="-24.22"/><use xlink:href="#I" x="3.89" y="-24.22"/><use xlink:href="#J" x="3.89" y="-24.22"/><use xlink:href="#K" x="3.89" y="-24.22"/><use xlink:href="#L" x="3.89" y="-24.22"/><use xlink:href="#M" x="3.89" y="-24.21"/></g><use xlink:href="#C" x="12.76" y="-30.05" class="C"/><use xlink:href="#D" x="12.77" y="-30.05" class="B"/><use xlink:href="#E" x="12.77" y="-30.05" class="C"/><g class="B"><use xlink:href="#F" x="12.77" y="-30.05"/><use xlink:href="#G" x="12.77" y="-30.04"/><use xlink:href="#H" x="12.77" y="-30.05"/><use xlink:href="#I" x="12.77" y="-30.05"/><use xlink:href="#J" x="12.77" y="-30.05"/><use xlink:href="#K" x="12.76" y="-30.05"/><use xlink:href="#L" x="12.76" y="-30.05"/><use xlink:href="#N" x="8.93" y="-23.51"/></g><use xlink:href="#C" x="6.3" y="-36.43" class="C"/><use xlink:href="#D" x="6.3" y="-36.43" class="B"/><use xlink:href="#E" x="6.3" y="-36.43" class="C"/><g class="B"><use xlink:href="#F" x="6.3" y="-36.42"/><use xlink:href="#G" x="6.3" y="-36.42"/><use xlink:href="#H" x="6.3" y="-36.42"/><use xlink:href="#I" x="6.3" y="-36.43"/><use xlink:href="#J" x="6.3" y="-36.43"/><use xlink:href="#K" x="6.3" y="-36.43"/><use xlink:href="#L" x="6.3" y="-36.43"/><use xlink:href="#N" x="2.46" y="-29.88"/></g><path d="M64.16 105.93c.06-.78-.04-1.57.01-2.35.05-.62.27-1.35-.64-1.35l-5.07-.43c-4.27-.31-8.48-1.29-12.75-1.56l-4.05-.07c-.52.03-1.02.2-1.54.24-.68.05-1.38.1-2.07.11-.86.03-1.71.14-2.56.05-2.1-.26-2.29.73-2.36 2.57-.06 1.42-.25 2.88.04 4.28.24.86 1.2 1.14 1.97 1.35 2.25.43 4.53.55 6.8.81l6.24.6c2.34.16 4.7.16 7.05.14 2.74-.1 5.66-.08 8.15-1.39.69-.38.59-1.14.65-1.85.05-.37.1-.74.11-1.11v-.03z" class="C"/><path d="M64.58 105.93l.01-2.35c.03-.36.13-.75 0-1.1-.31-.87-1.51-.7-2.24-.76l-9.58-1.02-8.91-.91c-.73 0-1.48-.08-2.21-.04-.63.03-1.25.21-1.88.26-1.41.12-2.88.22-4.29.14-1.72-.1-2.58.52-2.74 2.26-.12 1.29-.23 2.66-.14 3.95.06.98.23 1.82 1.14 2.35.97.56 2.2.64 3.28.78l4.54.47 9.36.76c3.13.08 6.35.17 9.42-.37 1.08-.19 2.75-.49 3.57-1.3.71-.71.62-2.22.66-3.13.02-.55-.83-.55-.86 0-.05 1.12.05 2.38-1.1 2.88s-2.44.75-3.71.88c-2.25.23-4.54.22-6.81.19-5.1-.05-10.3-.58-15.34-1.29-.87-.12-2.24-.18-2.9-.85-.8-.81-.39-2.86-.34-3.9.04-.71-.07-1.7.27-2.36.46-.87 1.83-.45 2.61-.47 2.25-.04 4.49-.43 6.73-.4a58.62 58.62 0 0 1 7.49.6c2.74.4 5.47.81 8.23 1.04l1.95.17c.73.06 1.63 0 2.34.2.29.08.51-.1.66.32.05.13-.05.49-.06.63-.06.78.02 1.57-.01 2.35-.02.55.83.55.86 0z" class="B"/><path d="M63.81 101.42c-.64-.37-1.43-.58-2.16-.76l-3.85-.8-4.79-.76-2.74-.11-9.77-.15c-1.69.09-7.48 0-7.15 2.52.45 1.55 4.4 1.56 5.8 1.77 3.89.38 7.78.87 11.69 1.02 2.93.04 5.88.09 8.8-.22.93-.06 6.02-1.01 4.19-2.48h-.02z" class="C"/><g class="B"><path d="M64.03 101.05c-1.19-.63-2.53-.88-3.83-1.17l-4.67-.85c-3.15-.51-6.36-.57-9.55-.63-2.42-.05-4.84-.05-7.25.09-1.54.09-3.35.17-4.71.98-1.03.61-1.55 1.93-.52 2.82 1.25 1.07 3.38 1.04 4.93 1.19 6.25.6 12.44 1.36 18.74 1.06 1.98-.09 4.03-.24 5.9-.98 1.03-.41 2.41-1.56.97-2.5-.46-.3-.89.44-.43.74.87.57-2.21 1.39-2.59 1.47-1.82.4-3.72.44-5.57.47-5.34.09-10.59-.46-15.9-1-1.52-.15-3.16-.18-4.62-.67-.58-.19-1.43-.58-1.06-1.32.28-.57 1.08-.81 1.64-.96 1.3-.37 2.69-.43 4.03-.48 2.15-.08 4.3-.09 6.44-.05 3.04.06 6.13.1 9.14.57 1.45.23 2.9.47 4.33.77s2.89.53 4.15 1.2c.49.26.92-.48.43-.74zm-9.2.44c-.14-.14-.41-.22-.62-.28-.85-.23-1.72-.37-2.6-.52-1.9-.29-3.81-.27-5.74-.27-.78.05-3.13-.09-3.23.91.1.77 1.79.7 2.41.82l4.34.38c1.5.02 3.02.1 4.5-.2.36-.09 1.34-.33.96-.82h-.02zm-18.4 2.99c-.03.14-.07.28-.08.42a1.09 1.09 0 0 0 .03.26c0 .03.01.05 0 0 0 .03 0 .05 0 0-.03.15-.09.28-.08.44 0 .09.02.16.04.25 0 .02 0 .04.01.07-.01-.06 0-.04 0 0 .03.42-.09.83-.03 1.25.03.22.33.36.53.3.24-.08.33-.29.3-.53.01.1 0 .04 0-.02v-.12a2.45 2.45 0 0 1 .02-.27c.02-.2.04-.4.03-.61 0-.1 0-.26-.06-.35-.01-.02 0 0 0 .02 0 .03 0-.04.01-.06.01-.06.04-.11.05-.17l.02-.23a.77.77 0 0 0-.02-.15s-.01-.08 0-.05 0-.04 0-.05c0-.06-.02.04 0 0 .02-.06.03-.13.05-.18.05-.22-.07-.47-.3-.53s-.47.07-.53.3h0zm5.49.53c-.2.2-.22.46-.22.73l.03.63c.04.44.05.89.05 1.34 0 .22.2.44.43.43s.42-.19.43-.43v-.05c0-.22-.2-.44-.43-.43a.44.44 0 0 0-.43.43v.05h.86l-.04-1.2-.04-.57v-.28-.13c.01-.08 0-.06-.03.07-.04.05-.04.06-.01.02.16-.16.17-.45 0-.61s-.43-.17-.61 0h0zm4.76.71a6.65 6.65 0 0 0 .03 1.18c.01.07.01.08 0 .02v.08.12c0 .09-.02.18-.01.28 0 .12.02.23.04.35 0 .04.01.07.02.11-.01-.1 0 .05 0 .07.01.22.19.44.43.43.22 0 .44-.19.43-.43 0-.11-.02-.22-.04-.33 0-.03 0-.05-.01-.08v-.02c0 .03 0 .02 0-.02v-.08c0-.19.04-.38.02-.57 0-.07-.01-.08 0-.03v-.08c0-.04 0-.08-.01-.12l-.01-.29.02-.58c.01-.22-.21-.44-.43-.43-.24.01-.41.19-.43.43h0zm5.11.19c0 .19-.03.37-.04.56l-.01.3v.13c0 .05 0 .1.02.16 0-.04 0-.04 0 0 .04.38.05.75.03 1.13-.02.22.21.44.43.43.25-.01.41-.19.43-.43.03-.38.02-.76-.03-1.13 0-.03-.02-.26-.02-.15v-.13l.01-.28.04-.58c.01-.22-.2-.44-.43-.43a.44.44 0 0 0-.43.43h0zm4.6.17c-.04.33-.06.64.1.95l-.06-.22c.04.3-.05.6-.02.9 0 .1.03.2.04.3.01.08-.01-.12 0-.03v.06.04c.02-.09.02-.12.01-.08.25-.3.47-.36.65-.18-.09-.07-.18-.13-.3-.13-.1 0-.23.05-.3.13-.14.15-.19.46 0 .61.17.13.37.2.57.08.16-.1.23-.27.23-.44 0-.1-.02-.2-.03-.3 0-.03-.01-.07-.02-.1v-.04c.03.17.01.11.01.07 0-.27.05-.54.03-.81 0-.06 0-.13-.02-.19-.01-.04-.03-.08-.05-.12-.01-.03-.01-.02.01.03 0 0-.03-.09-.02-.1v.03-.05c0-.14.02-.27.03-.41.02-.22-.21-.44-.43-.43-.25.01-.4.19-.43.43h0zm4.69-.99a.84.84 0 0 0-.11.41v.16c0 .04.03.22.02.12.02.21 0 .43-.01.64-.02.45-.03.9.05 1.35.04.22.32.36.53.3.24-.08.34-.29.3-.53v-.02-.07c0-.04 0-.09-.01-.13l-.01-.29.02-.56c.02-.18.02-.37.02-.56v-.12c0-.04-.03-.22-.02-.12v-.12c0-.05 0-.05 0 0 .01-.05.01-.05 0-.01.1-.2.06-.47-.15-.59-.19-.1-.48-.06-.59.15h0z"/></g><g class="D"><path d="M103.79 149.56c-1.33 2.91-1.93 4.54-5.5 4.29-3.39-.06-6.92.43-10.2-.65-.81-.3-1.18-1.09-1.6-1.8a17.75 17.75 0 0 1-1.5-3.32c-.68-2.12-1.08-4.33-1.5-6.51-.47-2.44.32-4.87 1.91-6.73 3.59-4.23 9.68-5.63 15-4.63.74.13 1.55.41 1.98 1.06.24.35.34.79.5 1.22.15.43.33.84.49 1.26.75 1.87.97 3.88 1.26 5.86.5 3.34.68 6.82-.84 9.92v.03zM215.65 12.7c-.06-.12.03-.03.05.01.01.02 0 .04-.05-.01z"/></g><g class="E"><path d="M262.03 41.17c-.5 4.15-.68 8.33-1.21 12.47-1.15 7.25-2.14 14.51-3.92 21.68-1.81 7.08-5.86 13.33-10.18 19.13-1.06 1.41-2.15 2.77-3.34 4.06-4.55 5.1-10.99 8.2-16.86 11.56-.98.58-2.01 1.05-2.98 1.67-.87.57-1.83 1.36-2.7 1.79-2.17.99-5.3-.06-7.45-.72-3.33-1.03-1.65-2.13-4.41-3.58-12.01-6.6-15.21-9.11-22.82-20.7-1.86-2.91-3.52-5.96-4.76-9.19-2.51-6.84-3.28-14.2-4.53-21.32-1.04-5.44-1.23-10.94-1.85-16.44-.2-1.54-.16-2.79.01-4.41.47-3.33 1.11-6.57 2.85-9.02 3.06-3.57 8.74-3.87 12.74-5.21 4.65-1.44 9.44-2.39 13.97-4.17 1.19-.46 2.4-.85 3.59-1.31.84-.32 1.67-.68 2.47-1.11.58-.31 1.15-.72 1.49-1.3.21-.35.33-.73.42-1.11.15-.69.25-1.34.95-1.48.31-.08.64-.1.96-.13.83-.08 1.63-.22 2.45-.14 3.12.29 6.99 1.48 9.82 3.23 1.73.97 3.64 1.64 5.5 2.34 2.47.98 5.04 1.57 7.63 2.18 2.91.68 5.86 1.31 8.69 2.22 5.1 1.58 10.65 3.6 12.2 9.43.94 2.98 1.56 6.46 1.26 9.52v.03zm-73.27 52.57c-.08.36-.38.64-.64.89l-3.03 2.78c-.17.15-.41.31-.62.26-.18-.03-.38-.22-.52-.39L182.91 96l-3.44-4.69c-1.56-2.24-3.03-4.56-4.32-6.98-.11-.21-.24-.5-.17-.7.06-.21.29-.35.5-.44l4.67-2.05c.55-.26.95-.03 1.23.48l7 10.93c.21.34.46.77.39 1.17v.03z"/></g><path d="M257.54 40.89c-.61 5.14-.76 10.31-1.65 15.4-2.18 13.24-3.01 23.51-11.39 34.73-3.5 5.1-7.42 9.96-12.84 13.18-3.26 2.11-6.75 3.92-10.07 5.9-2.6 1.73-5.77 2.96-8.94 2.54-1.79-.23-3.41-1.11-5-1.94l-5.32-2.96c-2.5-1.41-4.98-2.87-7.36-4.46-5.77-3.85-9.64-9.52-13.4-15.19-1.89-2.96-3.56-6.08-4.79-9.37-2.37-6.67-3.15-13.8-4.35-20.72-1.04-5.38-1.26-10.82-1.84-16.27-.59-4.03.44-9.15 2.03-12.57 2.36-4.79 9.62-5.06 13.94-6.59 4.01-1.22 8.08-2.09 12.03-3.48l4.78-1.75c.85-.32 1.68-.66 2.48-1.07 1.01-.51 2.06-1.27 3-1.92 1.11-.77 2.2-1.42 3.63-1.66 1.53-.23 3.15-.16 4.58.45 1.88.81 3.4 2.33 5.24 3.2 1.96.98 4.09 1.57 6.13 2.38 4.4 1.67 9.13 2.62 13.63 4.03 3.99 1.26 10.11 1.82 12.73 5.39 2.02 3.02 3.11 9.17 2.73 12.72v.03z" class="B"/><path d="M257.11 40.89c-1.12 10.05-1.98 20.1-4.17 30-1.98 8.99-6.04 16.65-11.69 23.86-2.98 3.8-6.31 6.91-10.42 9.46s-9.38 6.48-14.27 7.73c-5.74 1.47-11.77-3.22-16.5-6s-8.8-5.73-12.24-9.88c-6.44-7.76-11-16.42-12.97-26.34-1.95-9.85-3.86-20.22-4-30.29-.06-4.51.97-10.62 5.14-13.11 3.17-1.89 7.19-2.31 10.68-3.35 4.21-1.25 8.49-2.22 12.62-3.7s7-3.05 10.61-5.11c5.73-3.28 10.72 2.13 15.94 4.06 4.85 1.79 9.79 3.09 14.75 4.53 4.16 1.21 10.19 1.68 13.29 4.97 2.86 3.04 3.64 9.19 3.22 13.16-.06.55.8.54.86 0 .73-6.86-1.52-14.19-8.4-16.55-10.38-3.57-21.18-4.85-30.67-10.68-3.2-1.96-6.68-1.94-9.84.05-4.95 3.11-10.26 5.03-15.9 6.59l-13.47 3.65c-3.23.95-6.13 2.33-7.65 5.49-1.8 3.75-2.25 8.21-1.88 12.3.52 5.72 1 11.41 1.97 17.08 1.03 6.03 1.77 12.14 3.57 18.01 1.51 4.92 4.04 9.37 6.91 13.61s5.7 8.05 9.48 11.22c4.37 3.66 9.68 6.37 14.67 9.06 4.25 2.29 7.99 3.23 12.57 1.13 4.82-2.2 9.75-5.29 14.11-8.29 8.43-5.79 15.21-16.1 18.46-25.67 4.02-11.82 4.68-24.68 6.05-36.98.06-.55-.8-.54-.86 0z" class="E"/><g class="C"><path d="M249.21 32c-2.39-1.8-6.2-2.05-9-2.84-5.13-1.45-10.27-2.8-15.28-4.63-2.4-.88-4.78-1.71-7-2.99-1-.58-2.38-2.09-3.6-2.15-1.32-.06-2.11.81-3.18 1.49-2.33 1.47-4.74 2.45-7.31 3.39-4.34 1.59-8.74 2.85-13.19 4.08l-6.83 1.87c-1.37.36-3.71.63-4.86 1.66-1.73 1.56-1.92 5.68-1.83 7.9.18 4.46.71 9.07 1.33 13.49 1.19 8.56 2.1 18.05 5.82 25.95 3.51 7.45 8.86 14.99 15.88 19.48 3.59 2.29 7.48 4.9 11.45 6.44 3.35 1.3 5.92-.48 8.85-2.1 3.77-2.08 7.72-4.14 11.02-6.92 3.58-3.02 6.4-7.07 8.93-10.99 5.49-8.51 6.88-17.72 8.49-27.55.84-5.15 1.27-10.3 1.77-15.49.28-2.88.63-7.55-1.37-10.01-.35-.43-.95.18-.61.61 2.42 2.99 1.16 8.77.86 12.22-.41 4.65-.95 9.24-1.71 13.84-1.22 7.37-2.08 15.03-5.64 21.72-4.25 8-9.8 14.62-17.62 19.24-3.56 2.1-8.39 5.97-12.57 4.61-3.57-1.16-7.12-3.7-10.3-5.66-7.28-4.49-12.63-11.62-16.4-19.24-3.48-7.04-4.19-15.18-5.46-22.83-.7-4.2-1.06-8.4-1.45-12.63s-1.44-9.7 3.02-12.19c1.46-.81 3.64-.93 5.24-1.37l5.6-1.59c3.99-1.09 7.9-2.28 11.79-3.7 1.41-.52 2.84-.99 4.2-1.62 1.79-.83 3.72-2.71 5.65-2.77 2.03-.06 4.09 1.96 5.99 2.83 1.56.71 3.19 1.24 4.8 1.82 4.12 1.5 8.3 2.63 12.51 3.82 3.39.96 8.74 1.43 11.56 3.56.44.33.87-.41.43-.74z"/><path d="M248.99 32.37c-.22-.3-.71-.47-1.13-.65-.95-.37-2.22-.71-3.27-.98l-4.5-1.17c-5.05-1.56-10.26-2.62-15.28-4.63-2.45-.9-4.6-1.53-7.1-3.04-.85-.51-1.67-1.09-2.47-1.65-.97-.72-1.72-.57-2.65.14-.8.56-1.63 1.14-2.49 1.64-1.61.96-3.55 1.72-5.16 2.29l-2.96 1.08c-5.15 1.91-10.29 2.96-15.42 4.56-2.15.57-4.47 1.02-6.49 1.8-.65.25-1.06.47-1.29 1.07-.65 1.64-1.14 4.12-1.23 5.99-.05.65.03 1.24.11 1.91.2 1.73.34 3.43.48 5.1.25 2.95.48 5.95.94 8.73l.94 5.68c1.22 6.87 1.81 13.13 4.92 19.38 2.18 4.32 5.15 8.59 8.22 12.4 1.79 2.17 3.77 4.09 6.11 5.59 3.24 2.13 6.92 4.19 10.47 6.12 1.34.66 2.77 1.56 4.3 1.57 1.37-.03 2.55-.74 3.76-1.32.83-.43 1.62-.87 2.43-1.32 2.62-1.46 5.23-2.94 7.74-4.54 2.65-1.61 4.91-3.67 6.9-6.1 2.39-2.93 4.77-6.34 6.67-9.54 3.7-6.08 4.63-11.46 5.78-18.06l2-12.55c.43-3.68.63-7.44 1.06-11.19a10.44 10.44 0 0 0 .06-2.5c-.23-1.89-.55-4.21-1.44-5.79v-.02z"/></g><path d="M196.14 66.18c-.13-.18-.25-.61-.29-.87-.15-.85-.13-1.75.23-2.55.38-1.07 1.01-2.05 1.92-2.75 1.06-1.03 2.62-1.63 4.09-1.25.82.24 1.46.93 2.14 1.42.56.41 1.12.83 1.6 1.33.78.85 1.5 1.75 2.42 2.47.4.32.78.65 1.2.57.64-.21 1.08-.78 1.6-1.2.88-.82 1.72-1.72 2.53-2.61 2.93-3.36 6.55-6.19 9.93-9.12 1.18-.96 2.46-1.44 3.92-2.03 1.01-.41 2.19-1.05 3.32-.88 2.64.48 3.16 3.98 2.5 6.21-.65 1.96-2.31 3.46-3.71 4.94l-5.95 5.95c-2.46 2.68-5.11 5.18-7.7 7.73-1.66 1.64-3.39 4.43-5.73 4.99-1.71.19-3.1-1.33-4.18-2.48-.94-1.02-2.06-1.88-3-2.9-.45-.47-.84-.98-1.28-1.46-.29-.29-.61-.54-.93-.8-.93-.71-1.62-1.64-2.44-2.45-.77-.67-1.57-1.33-2.14-2.16-.39-.55-.82-1.09-.98-1.74-.44-1.75.62-3.43 1.77-4.66.35-.42.54-.42.97-.32.93.13 1.9.38 2.67.93.15.13.13.23.02.36l-4.25 5.28c-.07.08-.15.17-.24.06h0z" class="D"/><g class="B"><path d="M228.39 46.95c3.19.28 4.82 3.75 3.92 6.6-.25.85-.72 1.6-1.28 2.3-.68.84-1.5 1.63-2.28 2.38l-5.45 5.43c-2.45 2.67-5.08 5.15-7.66 7.69-1.69 1.65-3.39 4.43-5.74 5.03-1.71.21-3.1-1.31-4.18-2.46-.94-1.03-2.06-1.89-3-2.9-.46-.48-.87-1.01-1.32-1.5-.9-.81-1.88-1.52-2.64-2.48-.88-1.11-2.25-1.78-2.92-3.05-.42-1-.48-2.19-.09-3.21.37-1.02.89-2 1.74-2.7.8-.75 1.71-1.4 2.83-1.53 1.41-.22 2.21.27 3.23 1.16.65.53 1.35.97 1.93 1.58.81.86 1.48 1.73 2.42 2.5 1.27 1.15 1.56.55 2.65-.37 1.17-1.06 2.24-2.26 3.3-3.43 3.01-3.36 6.78-6.15 10.13-9.2 1.23-1.09 2.66-2.02 4.39-1.84h.03z"/><path d="M228.28 47.36c4.98 1.02 4.03 6.53 1.34 9.41l-3.92 3.85-8.42 8.53-3.79 3.95c-1.96 2.18-5.92 2.05-7.97.03-2.32-2.3-5.8-4.79-7.61-7.5-.93-1.39-1.89-4.97-.76-6.44.9-1.17 4.74-1.63 6.12-1.14 1.79.63 2.79 3.01 4.31 4.04 1.12.75 1.33.87 2.52.27 2.65-1.34 4.75-4.95 6.92-6.96 1.34-1.25 2.76-2.42 4.15-3.61 1.79-1.53 4.72-4.64 7.21-4.41.55.05.54-.8 0-.86-1.9-.18-3.33.84-4.72 1.96-2.48 1.99-4.92 4.14-7.24 6.3-1.6 1.49-4.09 5.52-6.18 6.32-2.92 1.11-5.07-3.16-7.23-4.35-3.1-1.72-6.64.63-7.65 3.81-1.29 4.08 2.67 6.39 5.26 8.86 2.18 2.08 5.71 7.86 9.38 7.36 1.82-.25 3.36-2.31 4.47-3.52 2.17-2.38 4.53-4.56 6.78-6.85l7.79-7.89c1.42-1.41 3.08-2.86 3.67-4.86.97-3.29-.89-6.45-4.22-7.13-.54-.11-.77.72-.23.83z"/></g><g class="D"><path d="M216.68 121.17c2.28-1.09 4.69.26 6.55 1.6 1.48 1.1 2.92.85 3.15-1.13.19-3.4-.94-6.84-2.84-9.64-.41-.6-.98-1.13-1.72-1.22-1.31-.15-2.57.58-3.54 1.39-2.86 2.48-3.46 6.44-3.89 10.01m-110.97 27.17c-1.29 2.83-2.54 4-5.86 4.08-3.54.08-8.15.83-10.7-2.23-1.48-1.79-1.99-4.86-2.45-7.1-.87-4.25-.61-7.59 2.96-10.51 2.1-1.72 4.57-2.66 7.24-3.04 3.57-.51 6.68-.26 8.35 3.33 1.98 4.26 2.41 11.25.45 15.48-.23.5.51.93.74.43 1.33-2.89 1.42-5.9 1.07-9.02s-.6-8.62-3.41-10.51c-2.1-1.41-6.22-.86-8.53-.38-3.32.7-6.59 2.46-8.61 5.25-2.27 3.13-1.73 6.29-.93 9.85.57 2.54 1.43 6.81 3.8 8.39 2.76 1.84 8.85 1.28 11.9.93 2.77-.31 3.64-2.13 4.73-4.51.23-.5-.51-.93-.74-.43z"/></g><path d="M103.42,149.45c-.29.61-.58,1.87-1.1,2.3-2.08,1.73-3.18-.31-3.95-1.78-1.5-2.85-1.47-6.44-.78-9.5.48-2.11,1.44-4.32,3.72-5.1s2.52,1.6,2.77,3.26c.54,3.63.89,7.37-.67,10.82-.23.5.51.93.74.43,1.1-2.44,1.38-4.93,1.22-7.59-.11-1.86-.02-6.43-1.27-7.74-2.3-2.41-6.31,2.08-6.96,4.13-1.36,4.29-1.38,9.8,1.6,13.45,2.74,3.36,4.04.64,5.41-2.25.23-.5-.5-.93-.74-.43Z" class="E"/><path d="M145.31,146.57c.53-2.27,1.76-5.39-.59-7.01-.96-.79-2.09-1.38-3.26-1.82-4.47-1.61-9.37-1.46-14.02-.87-1.13.16-2.32.25-3.38.68-.94.36-1.36,1.04-1.35,2.01.22,3.73,1.11,7.41,2.77,10.77.58,1.11,1.09,2.41,2.2,3.07.77.45,1.79.46,2.66.5.76.02,1.52.01,2.28,0,2.33-.1,4.66.08,6.99-.06,1.05-.03,2.24.12,3.03-.72.43-.44.75-.99,1.03-1.53.41-.82.8-1.65,1.06-2.53.24-.81.4-1.65.58-2.47v-.03Z" class="D"/><path d="M139.11,142.21c.1,3.96-.02,7.66,1.89,11.27.26.49,1,.06.74-.43-1.83-3.48-1.67-7.05-1.77-10.84-.01-.55-.87-.55-.86,0h0Z" class="E"/><g class="D"><path d="M145.72 146.68c.53-2.11 1.5-4.74.05-6.71-1.76-2.38-5.74-3.28-8.44-3.67-3.87-.55-8.49-.53-12.3.5-2.73.74-2.9 2.17-2.56 4.85.43 3.39 1.35 7.28 3.29 10.17 1.53 2.28 3.02 2.51 5.71 2.52 2.99.01 7.66.87 10.48-.3 2.56-1.07 3.24-5.05 3.78-7.37.12-.54-.7-.76-.83-.23-.62 2.65-.91 4.54-3.45 5.94s-4.71 1.02-7.44 1.04c-2.54.02-5.46.64-7.27-1.62-1.32-1.64-2.04-4.22-2.59-6.18-1-3.57-1.35-7.75 3.29-8.35 2.11-.27 4.24-.44 6.37-.4 2.72.05 6.21.25 8.59 1.7 1.32.81 3.02 2.63 3.28 4.22.14.86-.53 2.69-.77 3.63-.14.53.69.76.83.23zm60.87 5.95c.93 1.43 2.79 1.32 4.33 1.41l4.67.25c3.52.12 6.05.1 7.98-3.16 1.29-2.14 1.99-4.6 2.49-7.01 1.28-6.03 1.06-12.14-.13-18.13-.43-2.14-1.27-4.86-3.24-5.97-1-.51-2.32-.37-3.43-.18-1.15.24-2.29.55-3.33 1.08-.64.35-1.16.79-1.67 1.29-2.16 2.12-4.41 4.28-6.25 6.7-1.2 1.54-1.7 3.41-2.39 5.19-.6 1.24-1.52 2.21-1.49 3.66-.13 5-.26 10.44 2.45 14.85l.02.02z"/></g><path d="M225.32 131.14c-.33-1.74-.89-3.6-1.99-5.04-1.57-2.01-3.66-3.01-5.68-.95-.74.72-1.45 1.5-1.95 2.42-.28.52-.42 1.11-.6 1.64-.4 1-.36 2.09-.55 3.15-.69 4.41.41 11.56 3.13 15.18 2.54 3.37 5.38 1.39 6.54-1.95 1.55-4.17 1.89-10.04 1.1-14.42v-.03zm-9.41 9.99c-.51-2.28-.86-4.69-.7-7.02.07-1.03.26-2.04.37-3.07.08-.9.39-1.76.68-2.6.34-.9.99-1.67 1.67-2.35.58-.55 1.22-1.21 2.07-1.21 1.37.06 2.43 1.33 3.12 2.43 2.01 3.77 1.93 8.3 1.54 12.45-.31 2.53-.75 5.42-2.28 7.52-3.34 4.14-5.86-3.69-6.46-6.12v-.02z" class="E"/><g class="D"><path d="M206.29 152.94c2.46 2.57 8.09 1.94 11.29 1.82s5.42-1.48 6.95-4.5c2.3-4.53 2.89-10.21 2.82-15.22-.06-4.18-.22-9.88-2.6-13.52-4.74-7.25-14.38 3.25-17.11 7.17-4.47 6.4-6.2 17.34-1.42 24.16.31.45 1.06.02.74-.43-1.89-2.69-2.29-6.38-2.43-9.57-.08-1.77-.34-4.29.15-5.98.28-.97.96-1.74 1.36-2.65 1.5-3.48 3.08-6.2 5.74-8.94 3.19-3.29 9.52-8.73 12.89-2 3.07 6.15 2.24 16.17.56 22.54-1.04 3.94-2.64 7.7-7.18 8.06-2.74.22-9.1.59-11.14-1.55-.38-.4-.99.21-.61.61zm-42.01-7.81c.75 3.17 1.73 8.72 5.51 9.48 2.96.6 6.54-.05 9.54-.18 2.1-.09 3.22-.03 4.68-1.59 1.35-1.45 2.11-3.84 2.83-5.66 1.23-3.08 2.33-6.22 3.24-9.41.73-2.56 1.27-4.99 1.12-7.65-.18-3.21-1.72-5.84-2.29-8.92-.65-3.52-.08-7.16-4.28-8.19-3.93-.96-7.18 1.19-9.49 4.19-3.48 4.51-4.98 10.23-8.02 15.02s-3.98 7.36-2.84 12.89c.11.54.94.31.83-.23a23.43 23.43 0 0 1-.48-4.73c.01-2.76 1.46-4.73 2.89-6.96 2.16-3.35 3.62-6.9 5.36-10.48s4.25-8.14 8.57-8.92c3.43-.62 5.95 1.75 6.35 5.03.14 1.16.15 2.32.44 3.46.45 1.76 1.4 3.33 1.79 5.11.56 2.53.42 5.16-.1 7.67-.8 3.85-2.25 7.66-3.68 11.31-1.13 2.89-2.26 6.21-5.65 7.2-1.5.44-3.85.09-5.44.16-2.95.13-6.02.64-7.86-2.46-1.1-1.86-1.68-4.29-2.17-6.38-.13-.54-.95-.31-.83.23z"/><path d="M164.69 145.02c.43 2.05 1.14 4.06 2 5.99.28.66.56 1.36.96 1.96.65 1.11 1.83 1.26 3.01 1.27 2.49.11 4.97-.1 7.46-.22 1.56-.09 3.4.29 4.77-.59.63-.47 1.05-1.23 1.48-1.93 1.03-1.75 1.77-3.66 2.49-5.56l2.81-8.27c.46-1.64.94-3.28 1.1-4.98.09-.84.07-1.71 0-2.56-.11-1.41-.24-2.86-.71-4.19-.41-1.25-1.11-2.49-1.42-3.75-.68-2.5.02-6.43-2.23-8.03-.82-.56-1.91-.76-2.91-.87-4.86-.72-8.27 3.9-10.36 7.96-1.76 3.35-2.91 6.9-4.93 10.11l-2.78 4.36c-.96 1.45-1.38 2.7-1.23 4.45.09 1.61.16 3.23.49 4.81v.03z"/></g><path d="M101.14,98.07c.93.8,2.53.57,3.74.63,1.53.11,3.06-.02,4.59-.08.95-.01,2.16.2,2.85-.52.55-.62.57-1.85.56-2.69-.01-.73-.09-1.47-.51-2.08-.74-1.09-2.14-1.76-3.43-1.84-.94-.06-1.88.12-2.81.26-1.41.26-2.94.41-4.11,1.31-.56.49-.82,1.25-1.08,1.98-.34.95-.66,2.23.17,3.01l.02.02Z" class="B"/><path d="M100.7,94.45c-1.29,3.45.32,4.58,3.67,4.66,2.18.05,4.5.17,6.67-.09,1.19-.14,1.8-.63,2.13-1.79.87-3.05-.93-5.87-4.08-6.15-2.88-.26-7.24.35-8.39,3.37-.2.52.63.74.83.23.86-2.26,4.46-2.75,6.62-2.76.95,0,1.95.08,2.78.61,1.73,1.12,2.63,5.04-.15,5.67-1.5.34-3.6.12-5.15.1-.8-.01-1.9.15-2.66-.06-2.54-.69-2.01-2-1.42-3.55.19-.52-.63-.74-.83-.23Z" class="D"/><path d="M226.43 124.03c-.01.75.01 1.6-.25 2.28-.1-.52-.02-1.27-.06-1.84-.07-1.18-.27-2.37-.4-3.54-.31-2.29-.75-7.65-4.27-6.45-2.41.94-2.79 3.75-3.37 5.95-1.05 3.89-1.61 7.94-1.92 11.99l-.18 2.54c-.17 1.61-.41 3.31-.18 4.94-.13 1.81-3.8.87-5.02 1.1-1.73.07-3.47.21-5.18.43-1.8.23-3.62.1-5.43.13-3.59.15-7.19.16-10.78.11-2.18-.04-1.09-1.53-.93-2.83.15-1.18.21-2.37.26-3.55.19-6.02-.51-12.23-2.8-17.85-.64-1.38-1.98-2.45-3.57-2.2-4.92.67-6.59 8.09-7.21 12.21-.43 3.94-.51 7.89-.67 11.84.04 1.05.16 2.71-1.3 2.72-1.06.09-2.06-.08-3.11.02-4.14.32-8.3.55-12.45.28-2.94-.3-5.83.3-8.76.46-7.24.35-14.5.05-21.75.15-10.23-.34-20.46-.43-30.69-.39-4.21-.03-8.43.38-12.64.09-2.5-.08-2.47-1.98-2.58-4-.67-6.93-.99-14.39.96-21.06.64-2.08 1.33-4.17 2.45-6.04 3.05-4.78 7.62-8.56 12.71-11 1.81-.67 3.76-.92 5.65-1.33.88-.15 1.83-.16 2.59-.65 4.87-4.18 8.57-9.61 13.32-13.94 2.14-2.07 4.29-4.24 7.02-5.5 3.63-1.7 7.69-1.97 11.57-2.79 3.14-.56 6.35-.48 9.51-.99 6.03-.25 12.1-.3 18.13-.02 13.01-.18 26.07 1 38.67 4.36 1.9.55 4.58 1.5 5.44 3.43.4 1.09.18 2.32.73 3.35.96 1.65 2.46 2.91 3.62 4.42 3.34 3.88 5.07 8.71 7.15 13.31.65 1.23 1.57 2.26 2.28 3.45a18.71 18.71 0 0 1 1.67 3.46c.94 2.62 1.5 5.43 1.75 8.19.1 1.59-.02 3.18.01 4.77v.03z" class="B"/><path d="M216.21 134.65c.04.15.02.35 0 .53a24.48 24.48 0 0 0-.18 4.01c.05.54-.13 1-.67 1.19-.92.37-1.91.62-2.9.76-1.26.18-2.53.14-3.79.07-5.5-.57-10.9 1.53-16.38.85-.82-.11-4.1-.34-4.29-1.23-.11-.39 0-.82.05-1.21.07-.51.12-1.04.43-1.4.61-.63 1.5-.88 2.34-1.17 1.31-.39 2.74-.56 4.09-.69l4.39-.45 16.34-1.55c.32-.02.54.05.6.27v.02z" class="F"/><path d="M215.87 139.96c-.13.21-.37.33-.6.42-2.05.82-4.29.97-6.48.81-5.53-.6-10.97 1.51-16.49.84-1.08-.1-2.5-.29-3.58-.65-.55-.15-.84-.56-.73-1.17.05-.41.22-.7.57-.78l24.47-.89c.82.02 1.75-.12 2.54.04.5.18.49.94.3 1.35v.02z" class="E"/><path d="M111.21 134.74c-.79.07-1.59.02-2.39-.03-1.12-.07-1.59-.53-1.53-1.68-.02-.64-.2-1.25-.23-1.85-.04-.49-.03-.98-.03-1.48.02-1.11-.36-2.22-.2-3.32.04-.68.64-.57 1.14-.55.95.02 1.87-.14 2.8-.18l3.28.06c.67-.05 1.33 0 1.99 0 .57 0 1.15-.1 1.73-.13l2.51-.05 6.74-.39 3.14-.12c.9-.07.85.8.97 1.44l.47 2.53.29 1.85c.06.64.34 1.49-.17 2.01-.55.43-1.31.48-1.98.6-1.47.22-2.93.28-4.4.29l-2.59.1c-1.05-.02-2.1-.02-3.14.07l-8.37.83h-.03z" class="B"/><path d="M111.21,134.32c-3.72.09-3.58-2.33-3.79-5.16-.24-3.33,1.61-3.05,4.45-3.05,3.94,0,7.85-.14,11.79-.33,2.35-.11,5.99-1.07,7.19,1.44.3.63.6,2.08.48,2.82-.59,3.68-3.67,3.19-5.99,3.28-4.75.17-9.4.63-14.13,1.01-.55.04-.55.9,0,.86,4.3-.35,8.52-.84,12.84-.95,1.61-.04,6.83.56,8.05-1.15.95-1.33,0-6.27-.65-7.39-1.19-2.07-4.34-.95-6.44-.83-3.82.22-7.67.49-11.5.44-1.6-.02-5.84-.89-6.84.61-.85,1.28-.4,6.45.26,7.93.76,1.7,2.63,1.38,4.28,1.34.55-.01.55-.87,0-.86Z" class="D"/><path d="M226.44 124.07c-.01.76.01 1.63-.25 2.33-.16-.54.02-1.28-.05-1.86-.09-1.45-.34-2.9-.5-4.35-.19-1.45-.47-3.24-1.24-4.57-.96-1.87-3.01-1.58-4.31-.23-.64.65-1 1.51-1.29 2.37-1.4 4.73-2.26 9.58-2.62 14.53-.04.73-.35.97-.97.34-.66-.69-1.4-1.34-2.22-1.83-.48-.32-1.13-.83-1.82-1.06-4.3-1.33-10.38.09-15.33.78-1.45.34-3.85.04-4.66 1.4-.76 1.16-1.31 2.54-2.22 3.73-.3.36-.26-.29-.25-.52.14-6.07-.52-12.39-2.96-18.01-.65-1.22-1.87-2.11-3.3-1.93-2.73.23-4.37 2.74-5.39 5.02-2.69 6.22-2.3 13.17-2.61 19.8-.09.93-1.04.19-1.32-.28-5.21-7.61-9.12-11.98-15.82-19.49-.93-.91-1.13-2.05-.81-3.31.17-.74.3-1.31.91-1.79 2.59-4.48 7.44-8.11 11.75-11.46 2.36-1.94 6-2.68 8.01-5.03.54-.78.87-1.9 1.07-2.88.32-1.61.33-3.29.38-4.93.24-7.7 2.19-12.79 10.31-13.9.74-.16 1.48-.28 2.23-.13 3.46.57 6.88 1.36 10.32 2.09 2.38.59 4.84 1.16 6.77 2.74 1.67 1.15.91 3.34 1.82 4.88 1.02 1.56 2.43 2.82 3.57 4.29 2.2 2.67 3.84 5.69 5.16 8.88l1.89 4.33c.67 1.3 1.65 2.38 2.38 3.64 2.09 3.47 2.96 7.6 3.37 11.6.1 1.6-.02 3.2.01 4.79v.03z" class="F"/><g class="D"><path d="M184.57 97.6c-.42 2.57.36 4.47 1.41 6.8 1.76 3.91 2.75 7.49 3.32 11.74.87 6.57.5 13.51 2.05 19.96.13.54.95.31.83-.23-1.48-6.15-1.16-12.81-1.93-19.07-.33-2.65-.7-5.37-1.46-7.93-1.09-3.67-4.04-7.03-3.39-11.05.09-.54-.74-.77-.83-.23h0zm-15.05 19.86c1.64 0 3.49.1 4.96-.75.87-.5 1.42-1.35 2.14-2.01 1.93-1.76 4.15-2.37 6.75-2.19.3.02.56-.39.37-.64-1.2-1.58-2.82-2.78-3.77-4.57-2.03-3.79-.64-7.91.1-11.8.1-.54-.72-.77-.83-.23-1.02 5.4-2.52 11.23 2.24 15.45 1.52 1.35 1.48.62-.22.92-1.31.23-2.61.55-3.76 1.27-.82.51-1.36 1.18-2.08 1.82-1.89 1.67-3.4 1.88-5.91 1.89-.55 0-.55.86 0 .86h0z"/></g><path d="M226.58 124.08c0 .66-.02 1.33-.15 1.97-.01.09-.05.23-.1.26-.03 0-.05-.09-.06-.26v-1.5c-.06-1.11-.24-2.2-.38-3.3-.3-2.07-.46-4.93-2.06-6.49-1.02-.91-2.48-.44-3.44.4-1.48 1.32-1.75 3.41-2.24 5.22-1.05 3.88-1.63 7.91-1.95 11.95-.05 1-.49.87-1.13.2a11 11 0 0 0-1.24-1.12 50.12 50.12 0 0 0-1.94-1.29c-.44-.26-1-.4-1.47-.71-7.11-5.9-10.82-11.73-20.41-16.02-.21-.09-.64-.29-.63-.42 9.8-2.7 13.7-6.43 27.87-6.74 1.42-.04 2.71-.04 4.24-.02.47 0 .85.18 1.12.58 2.51 3.63 3.5 8.12 3.94 12.46.1 1.6-.02 3.21.01 4.81v.03z" fill="#bbb"/><g class="D"><path d="M174.51 138.87c.07 2.85.08 3.31-2.96 3.11-1.86-.06-3.71.27-5.57.3l-1.78.05-4.96.04-4.94-.13c-1.21.04-2.4.28-3.61.38l-4.78.23c-5.28.18-10.57-.02-15.85.03h-5.45c-9.4-.49-18.81-.33-28.21-.37-4.25-.03-8.5.39-12.75.09-1.71-.11-2.33-.92-2.43-2.7l-.14-1.92c-.04-.31-.07-.72.23-.9.14-.08.35-.1.53-.11l3.6-.03c6.33 0 5.6-5.66 13.22-5.75.69-.02 1.38-.01 2.07.01 11.02.68 22.03-1.45 33.06-.85 2.24.11 4.48.29 6.72.43 4.2.29 8.21-.08 11.49 3.06.35.25.75.42 1.13.61.67.34 1.27.83 1.97 1.11.84.35 1.75.43 2.65.51l15.96 1.35c.28.04.52.1.68.32.19.26.12.7.12 1.09v.03z"/><path d="M226 124.03l-.23 2.17.84.11c-.19-3.07.11-8.91-2.21-11.41-2.19-2.36-4.91-.03-5.88 2.31-1.22 2.94-1.71 6.47-2.17 9.59-.52 3.54-.07 7.74-1.05 11.13-1.08 3.74-7.09 2.88-10.39 3.12-3.91.28-7.9.18-11.82.17-2.42 0-3.84-.13-4.16-2.89-.15-1.28.22-2.99.24-4.3.05-3.54-.27-7.08-1-10.54s-1.85-9.92-6.74-8.51c-3.67 1.06-5.23 5.62-6.05 8.91-.6 2.41-.84 4.82-1 7.29-.11 1.68-.17 3.36-.24 5.04-.12 2.88.08 4.6-3.06 5.34-3.62.85-8.22.5-11.93.39s-7.34.25-11.09.42c-8.51.39-17.19.35-25.7.03-8.4-.31-16.79-.27-25.19-.3-1.84 0-3.67.03-5.5.08s-4.55.61-6.32.08c-5.44-1.62-4.35-10.35-4.22-14.75.26-8.54 2.73-16.41 9.36-22.08 3-2.56 6.29-4.51 10.15-5.33 3.1-.66 4.83-.75 7.15-3 5.42-5.25 9.73-12.13 16.1-16.37 6.86-4.56 17.39-4.75 25.39-5.09 9.07-.39 18.35-.23 27.42.28s19.91 1.2 28.63 4.72c3.07 1.24 4.14 6.14 6.42 8.76 2.76 3.18 4.82 6.49 6.54 10.32s4.46 7.46 5.94 11.43c1.56 4.19 1.74 8.48 1.75 12.88 0 .55.86.55.86 0-.02-6.75-.87-12.64-4.66-18.38-2.01-3.04-3.09-6.57-4.79-9.79-1.59-3.03-3.94-5.16-5.81-7.93-1.44-2.13-1.33-4.95-3.3-6.67-2.31-2.02-6.11-2.5-8.95-3.15-8.15-1.84-16.48-2.85-24.82-3.17-8.87-.34-17.96-.69-26.82-.13-6.99.44-15.5.8-21.93 3.84-6.21 2.93-11.02 9.4-15.45 14.44-1.24 1.41-2.55 3.16-4.08 4.29-1.7 1.25-3.83 1.46-5.83 1.88-3.24.69-5.84 2.02-8.53 3.98-4.95 3.6-8.45 8.27-10.14 14.16-1.08 3.76-1.47 7.66-1.5 11.56-.03 3.6-.3 8.22.7 11.7.45 1.58 1.07 2.05 2.71 2.35 4.06.74 8.64-.07 12.75-.08l26.74.33c8.9.31 18.16.57 27.04-.17 3.58-.3 6.92-.31 10.51-.27 2.08.02 4.16-.06 6.23-.18 1.82-.11 4.49.27 6.21-.23 1.18-.34 1.38-.59 1.71-1.77.91-3.18.19-7.6.47-10.91.25-2.95.72-5.92 1.81-8.68.59-1.5 1.41-3.12 2.65-4.19 1.57-1.35 3.78-1.84 5.49.36.79 1.01 1.24 3.2 1.57 4.45 1.24 4.69 1.65 9.62 1.37 14.45-.1 1.61-1.45 4.54.11 5.76.78.61 2.62.19 3.52.2l6.88-.06c4.32-.12 8.65-.57 12.96-.6 1.75-.01 3.48.42 4.38-1.23.59-1.07.14-3.23.22-4.46.21-2.91.44-5.82.86-8.71.33-2.26.82-4.48 1.37-6.69.16-.65.28-1.31.49-1.95.71-2.23 4.26-4.52 5.46-1.52s1.07 6.42 1.26 9.45c.03.45.74.61.84.11.27-1.37.23-.98.26-2.39.01-.55-.84-.55-.86 0z"/></g><g class="E"><path d="M185.78 134.78c-.08-1.44-.35-2.88-.68-4.28-.44-1.87-.87-3.87-2.38-5.21-.79-.7-1.88-1.18-2.93-.88-.36.09-.8.35-.84.66-.06.31.27.6.5.79.41.33.79.71 1.12 1.12 1.93 2.61 2.79 6 2.63 9.22l-.26 2.29c-.26 2.57-.44 4.68-1.99 6.88-.37.54-.81 1.03-1.26 1.5-.75.75-1.53 1.57.03 1.97 5.18 1.08 6.31-10.54 6.06-14.02v-.03zm-3.08 11.51c-.52.78-1.25 1.56-2.16 1.71-.38.07-.81 0-.4-.46 1.66-1.58 2.91-3.66 3.3-5.93.18-1.01.24-2.04.38-3.06.1-.78.22-1.56.28-2.35.22-3.24-.75-6.67-2.6-9.36-.31-.44-.68-.84-1.06-1.21-.55-.58.25-.49.74-.29 2.54 1.18 2.81 4.34 3.4 6.75.67 3.03.45 6.16-.11 9.18-.31 1.74-.76 3.51-1.74 5l-.02.02z"/><path d="M185.02,140.67c-.37,2.21-.78,4.29-2.18,6.21-.69.95-1.74,1.79-2.98,1.56-1.12-.21-.25-.98.18-1.41.53-.52.99-1.04,1.4-1.67,1.55-2.34,1.68-4.16,1.95-6.82.26-1.67.45-3.39.19-5.08-.31-1.92-.88-3.81-1.91-5.62-.5-.85-1.13-1.64-1.9-2.26-.84-.61-.05-.91.7-.89,1.32.11,2.45,1.15,3.06,2.27.64,1.16.92,2.5,1.23,3.77.88,3.28.84,6.59.27,9.89v.03Z"/></g><use xlink:href="#O" class="B"/><path d="M182.5 84.29c-.3 2.98-.99 5.91-1.64 8.83l-.44 2.76-.67 2.63c-.08.32-.21.68-.45.88-.31.28-.81.26-1.27.29l-1.2.08-3.17.06-3.39-.13c-1.03-.01-2.04.17-3.06.2-1.7.03-3.42-.2-5.13-.02-1.13.1-2.26.09-3.39 0-1.72-.12-3.44.19-5.16.18-1.72-.07-3.43.06-5.14.11-1.7 0-3.38-.27-5.08-.22-3.44.1-6.88 0-10.31.11-2-.23-3.99-.08-5.99-.06-3.37.01-6.76.01-10.11-.24-1.36-.03-2.75.04-4.11-.04-.57-.03-1.13-.18-1.69-.27-1.66-.11-2.07-.83-.77-2.12 1.07-1.13 2.24-2.18 3.13-3.46.9-1.34 2.07-2.48 3.22-3.62 1.09-1.42 2.23-2.84 3.67-3.93 1.01-.89 1.84-1.93 2.78-2.88.35-.35.78-.6 1.23-.81 1.66-.76 3.35-1.47 5.12-1.92 1.91-.48 3.89-.68 5.84-.88.75-.07 1.5-.22 2.24-.36 1.12-.2 2.27-.23 3.4-.39.84-.1 1.68-.27 2.53-.33 1.02-.05 2.04-.02 3.06-.09.61-.02 1.21-.15 1.8-.26 1.51-.22 3.04-.24 4.57-.26.78 0 1.55-.12 2.33-.17 1.04-.08 2.06-.01 3.11.05 1.55.16 3.1-.09 4.66-.01 1.4.09 2.76.41 4.16.34a36.23 36.23 0 0 1 3.13.14c1.69.2 3.38.33 5.05.64 2.21.18 5.8.41 6.91 2.63.12.3.14.63.16.95.03.53.09 1.06.06 1.58v.03z" class="D"/><path d="M182.07 84.29c-.3 2.46-.81 4.83-1.3 7.25-.35 1.71-.37 3.94-1.1 5.53-1.62 3.56-6.18 2.15-9.4 2.18l-20.68.45c-6.09.14-12.3 0-18.39-.21-3.63-.12-7.27.15-10.9.02l-4.48-.19c-1.5-.04-5.62.86-4.89-2 .18-.71 2-2.12 2.5-2.71 1.16-1.4 2.36-2.71 3.56-4.07 1.89-2.15 3.78-4.32 5.92-6.25 3.39-3.06 8.13-3.45 12.42-4.05 3.23-.45 6.43-.9 9.68-1.13 6.12-.43 12.22-1.02 18.37-.68 4.19.23 19.03-.47 18.71 5.84-.03.55.83.55.86 0 .19-3.8-2.23-4.92-5.66-5.43-6.52-.98-13.1-1.18-19.67-1.33-6.65-.15-13.47.65-20.05 1.51-5.34.7-11.75 1.03-15.71 5.14-1.86 1.93-3.71 3.75-5.48 5.77-.96 1.1-2.02 2.1-2.95 3.24s-3.04 2.91-3.77 4.26c-1.43 2.65 1.87 2.63 3.89 2.74 6.96.36 13.97.26 20.93.29s14.07.27 21.08-.06c4.14-.19 8.29.03 12.42-.14 1.91-.08 3.78-.04 5.69-.01 1.4.02 3.78.33 5.06-.19 1.65-.67 1.75-2.37 2.11-4.07.8-3.86 1.62-7.78 2.1-11.7.07-.55-.79-.54-.86 0z" class="E"/><g class="D"><path d="M211.68,93.47c-2.26-3.87-4.5-8.68-8.41-11.1-2.67-1.5-5.8-1.77-8.79-1.99-.81-.07-1.63-.08-2.45-.02-1.48.14-3.88-.51-4.66,1.13-1,2.35-1.6,4.85-2.07,7.35-.57,2.59-.81,5.24-.61,7.88.32,4,3.47,3.55,6.47,3.06,1.59-.22,3.25-.23,4.86-.27,5.32-.06,10.65-.46,15.97-.39.65,0,1.45-.02,1.98-.39,1.02-.73-.04-1.78-.58-2.44-.65-.81-1.17-1.89-1.7-2.8v-.02Z"/><path d="M203.78,99.31c1.56,6.4,2.44,12.71,2.16,19.31-.23,5.46-1.13,11.13.1,16.53.12.54.95.31.83-.23-1.42-6.25-.03-12.91,0-19.23.04-5.66-.94-11.12-2.27-16.61-.13-.54-.96-.31-.83.23h0Z"/></g><path d="M204.49 82.68c-3.75-2.5-8.2-2.71-12.58-2.74-3.08-.02-4.3-.1-5.45 2.74-1.49 3.67-5.41 16.37.77 17.76 1.08.24 2.17 0 3.24-.12 3.29-.35 6.55-.37 9.85-.48l8.86-.28c1.3-.01 3.89.5 5.01-.48 1.61-1.41-.76-3.44-1.49-4.64-2.49-4.1-4.41-8.48-8.11-11.68-.42-.36-1.02.24-.61.61 2.59 2.24 4.35 5.12 6.05 8.05 1.03 1.78 4.69 5.68 1.84 7.28-.84.47-3.26.01-4.17.03l-4.43.15c-3.38.12-6.79.07-10.15.3s-6.93 1.78-7.98-2.56c-.77-3.19.34-7.02 1.08-10.15.46-1.96.73-3.28 2.29-4.62s2.8-1.14 4.81-1.09c3.75.1 7.55.54 10.73 2.67.46.31.89-.43.43-.74h0z" class="E"/><path d="M174.13 141.63c-.19.19-.47.29-.82.34-1.07.13-2.11-.08-3.17.02-3.47.27-6.96.46-10.44.39-1.94-.07-3.88-.26-5.82-.13-6.94.91-13.97.65-20.96.61-3.46-.02-6.92.09-10.37-.05-9.4-.51-18.84-.23-28.25-.3-3.58.09-7.18.33-10.77.07-.6-.06-1.22-.22-1.64-.67-.41-.43-.54-1.14-.61-1.81-.04-.36-.02-.82.35-.94.13-.05.26-.07.41-.09 1.55-.14 3.1-.37 4.66-.43.58-.02 1.21-.03 1.78-.15 1.38-.28 2.37-1.34 3.43-2.22 1.37-1.21 2.69-2.64 4.53-3.06.89-.22 1.83-.23 2.76-.34.59-.06 1.18-.14 1.77-.16 1.07-.06 2.15.19 3.22.16 1.55-.02 3.11-.22 4.67-.25 3.44-.11 6.88-.03 10.31-.12 6.13-.23 12.32-.55 18.44.03l2.66.16c2.1.16 4.31-.09 6.35.5 1.29.37 2.55.97 3.69 1.7 2.33 1.72 3.02 2.84 6.2 3.1 3.58.29 7.11.88 10.7.7.98-.04 1.96.06 2.93.12 1.14.07 2.27-.03 3.41 0 .35.02.66.03.85.33.15.26.12.73.12 1.16-.02.45-.04.97-.35 1.31l-.02.02z" class="F"/><path d="M174.19 141.63c-.19.19-.47.29-.82.34-1.07.13-2.11-.08-3.18.02-3.47.27-6.97.46-10.46.39-1.83-.07-3.67-.24-5.51-.15-1.32.06-2.63.33-3.96.42-5.75.38-11.51.26-17.27.21-2.8-.02-5.6.06-8.4 0-8.88-.46-17.78-.35-26.66-.36-4.42-.13-8.84.35-13.27.12-1.43 0-3.29-.12-3.33-1.96.05-.28.3-.33.54-.32 2.34.09 5.22.08 8.76-.08 21.71-1.23 62.26.32 64.04.08l18.99-.23c.33.02.58.06.74.31.19.33.05.89-.21 1.17l-.02.02z" class="E"/><g class="D"><path d="M174.02 141.22c-2.46 1.01-6.49.56-9.09.67-3.21.13-6.39-.15-9.59-.1-6.73.1-13.41.73-20.17.67l-40.13-.39c-3.01.03-6 .25-9.01.18-.36 0-1.63.14-1.91-.06l-.26-1.43c-.7-1.16-.53-1.66.52-1.51.95-.61 2.96-.06 4.1-.33 1.36-.33 2.31-1.12 3.35-2.02 3.15-2.72 5.94-3.82 10.16-3.73 12.78.26 25.53-.64 38.33-.04 4 .19 7.16.3 10.55 2.76 1.55 1.13 2.76 2.06 4.69 2.42 3.1.57 6.49.79 9.64.85l4.96.09c.8.02 5.44.3 3.67 2.09-.39.39.22 1 .61.61.49-.5.7-1.95.46-2.53-.61-1.49-2.21-.99-3.61-1-3.48-.03-6.98-.08-10.44-.41-1.92-.18-4.13-.16-5.99-.7s-3.22-2.06-4.86-3.06c-2.02-1.23-4.16-1.75-6.5-1.87-3.97-.21-7.96-.51-11.93-.57-8.27-.13-16.71.07-24.97.51-2.98.16-5.97-.23-8.93.27s-4.23 1.95-6.46 3.72-3.67 1.82-6.06 2.02c-.66.05-2.65 0-3.34.39-1.08.6-1.29 1.4-.72 2.69s1.69 1.5 3.01 1.66c3.81.46 7.8-.1 11.63-.12 8.42-.03 16.86-.13 25.27.23 9.37.4 19.03.6 28.39-.04 4.47-.3 8.81-.23 13.28-.31 2.49-.04 4.97-.31 7.46-.39 1.44-.04 2.76.18 4.11-.37.5-.21.28-1.03-.23-.83zm-88.21-22.91c-2.99-2.87 1.65-3.58 3.75-3.68l6.1-.27c3.55-.15 7.05-.24 10.6-.17 7.3.14 14.67.54 21.97.26 6.96-.27 13.94-.56 20.9-.23 3.7.18 7.39.22 11.09.36 1.44.05 2.88.14 4.32.13s4.56-.88 5.76-.32c1.55-.31 1.73.65.53 2.89a9.84 9.84 0 0 1-2.73 1c-1.36.38-2.82.55-4.21.79a132.9 132.9 0 0 1-12.58 1.54c-6.84.5-13.7.52-20.55 1.09-7.67.63-15.13.66-22.81.48-3.59-.09-7.15-.27-10.72-.68s-8.64-1.12-11.52-3.28c-.44-.33-.87.41-.43.74 1.78 1.34 4.75 1.97 6.83 2.54 3.1.86 6.46 1.05 9.65 1.28 7.79.56 15.73.69 23.52.18l22.6-1.31c6.72-.22 13.91-.88 20.44-2.54 1.58-.4 6.8-2.53 4.83-5.09-.77-1-3.33-.47-4.3-.41-3.87.22-7.66.06-11.53.02l-44.99-.26c-8.35-.14-16.65.08-24.99.5-3.83.19-5.52 1.8-2.16 5.03.4.38 1-.22.61-.61z"/><path d="M85.51 118.62c-.92-.72-2.38-2.77-1.55-3.68.34-.34.81-.44 1.35-.52.95-.11 1.81-.05 2.73-.13 4.05-.25 8.14-.34 12.2-.55a72.7 72.7 0 0 1 4.67-.01c2.71.13 5.42.05 8.13.1 5.06.19 10.13.4 15.2.21 4.66-.26 9.36-.43 14.03-.31 1.84.03 3.67-.04 5.51.02 2.75.09 5.41.42 8.14.35 2.88-.09 5.76.22 8.64.2 1.92 0 3.85-.25 5.76-.32.55-.02 1.1-.04 1.65 0 .38.02.72.1.91.37.43.63.1 1.46-.31 2.01-1.03 1.37-2.71 1.99-4.33 2.37-5.63 1.16-11.16 1.89-16.9 2.35-3.19.26-6.4.21-9.6.3-5.75.22-11.47.93-17.21 1.23-2.4.17-4.86.36-7.27.3-6.19-.36-12.37-.08-18.55-.8-1.93-.19-3.87-.35-5.75-.78-1.42-.34-2.74-.9-4.1-1.34-1.12-.37-2.35-.64-3.3-1.35l-.02-.02zm114.4-9.63c.27.54.46 1.21.96 1.58s1.17.3 1.77.2c.65-.12 1.55-.16 2.08-.63s.62-1.33.5-1.98c-.1-.54-.93-.31-.83.23.26 1.37-1.31 1.52-2.3 1.6-.94.07-1.09-.71-1.44-1.43-.24-.49-.98-.06-.74.43h0zm13.16-2.51c.25.48.44 1.14.88 1.49.51.41 1.28.24 1.88.14 1.26-.21 2.86-.69 2.38-2.3-.16-.53-.98-.3-.83.23.31 1.04-1.38 1.21-2.1 1.29-.96.1-1.09-.56-1.47-1.28-.26-.49-1-.05-.74.43h0z"/></g><path d="M196.03,80.89c1.71,2.56,3.66,4.9,4.83,7.77,1.31,3.19,2.2,6.69,2.92,10.05.11.52.91.3.8-.22-.72-3.38-1.6-6.96-2.92-10.17-1.19-2.88-3.2-5.28-4.92-7.85-.3-.44-1.01-.03-.72.42h0Z" class="E"/><path d="M99.25 116.14c.23-.37.05-1 .02-1.47-.06-.41.05-.93-.26-1.25-.25-.23-.68-.19-1.01-.18-1.34.06-2.77.04-4.13-.01-1.57-.02-3.15.03-4.73.09l-4.31.19c-1.21.24-.51 2.41-.05 3.09.46.78 1.45.83 2.27.76l6.88-.52 4.23-.32c.36-.03.86-.05 1.07-.36v-.02z" class="C"/><use xlink:href="#O" class="B"/><path d="M146.27 117.76c-.2-.22-.22-.55-.27-.84-.14-.68-.1-1.39-.13-2.09 0-.27-.07-.58.11-.8.2-.2.49-.13.91-.13l1.34.04 3.24-.05 4.9-.24h4.88l3.35-.04 2.8.04c1.09-.06 2.19-.13 3.27.1 2.08.34.14 1.94-.77 2.39-1.26.64-2.87.65-4.26.85l-6.14.36c-4.21.18-8.46.95-12.67.58-.2-.01-.4-.03-.55-.16h-.01z" class="C"/><path d="M146.68 117.65c-.39-1.19-.64-2.68.54-3.31.27-.15 2.02.05 2.1.05l5.21-.22c3.81-.17 7.65-.09 11.46-.09.7 0 1.83-.23 2.5-.05 1.23-.33 1.46.02.69 1.05-.03.96-.51 1.36-1.44 1.2-1.91.8-4.67.49-6.72.59-2.4.11-4.78.31-7.17.5-1.43.12-6.25 1.08-7.3.09-.4-.38-1.01.23-.61.61 1.02.96 3.88.4 5.09.35 3.84-.15 7.69-.54 11.52-.77 1.48-.09 9.52.05 9.41-3.1-.1-2.68-8.99-1.35-10.73-1.34a289.48 289.48 0 0 0-9.78.24c-1.67.07-4.04-.44-5.61.15-.13.05-.28.15-.3.3-.18 1.36-.13 2.65.3 3.96.17.52 1 .3.83-.23z" class="B"/><g class="E"><path d="M185.65 133.99c-.35-2.77-.98-7.49-3.43-9.11-3.36-2.23-5.31 2.67-6.01 5.22-1.37 5.4-.72 11.13 1.06 16.33 1.03 2.68 3.83 3.39 5.7 1 .45-.55.8-1.17 1.09-1.82 1.36-3.17 1.89-8.15 1.6-11.59v-.03zm-2.43 11.41c-.56 1.16-1.49 2.64-2.84 2.65-1.23 0-2.05-1.1-2.43-2.17-1.63-4.85-2.07-10.09-1.03-15.11.48-2.02 2.01-7.12 4.86-5.19 1.09.77 1.64 2.13 2.01 3.38 1.1 3.79 1.31 7.68.71 11.57-.25 1.63-.56 3.34-1.27 4.84v.03zm-3.93-7.66c.37 1.45 1.62.03 1.99-.65.42-.79.4-1.84.07-2.67-.61-1.24-2.17-1.19-2.29.34-.1.93.05 2.05.22 2.95v.03zm39.2.57c.37 1.45 1.62.03 1.99-.65.42-.79.4-1.84.07-2.67-.61-1.24-2.17-1.19-2.29.34-.1.93.05 2.05.22 2.95v.03zm-115.2-22.22c12.55-.79 25.28.23 37.85-.05.55-.01.55-.87 0-.86-12.57.28-25.3-.75-37.85.05-.55.03-.55.89 0 .86h0zm1.71 2.46c11.18-.07 22.4-.36 33.57.08.55.02.55-.83 0-.86-11.17-.43-22.39-.15-33.57-.08-.55 0-.55.86 0 .86h0zm3.5 2.64c4.08-.3 8.16.04 12.25-.04 4.41-.08 8.82-.27 13.23-.1.55.02.55-.83 0-.86-4.41-.17-8.82.01-13.23.1-4.09.08-8.17-.26-12.25.04-.55.04-.55.9 0 .86h0z"/></g><g class="B"><path d="M193.66,158.71c.88.8,1.38,1.94,2.24,2.77"/><path d="M193.36,159.02c.87.82,1.4,1.92,2.24,2.77.39.39,1-.22.61-.61-.85-.85-1.37-1.95-2.24-2.77-.4-.38-1.01.23-.61.61h0Z"/></g><path d="M185.28 141.18c.22.77-.95 4.64-1.61 5.11-.26.17-.57.08-.92 0l-1.12-.26c-.34-.08-.72-.15-.79-.32-.07-.14.05-.35.15-.5.74-1.11 1.29-2.35 1.54-3.64.08-.31.07-.7.29-.94.4-.45 2.27.03 2.47.53v.02z" class="G"/><g class="E"><path d="M110.3 108.77c.09-.01-.1.15-.12.18-.09.07 0 .14-.12.18-.11.04-.23-.06-.17-.17.07-.13.26-.17.38-.19h.02zm58.26-45.57c-.06.03-.21.13-.28.12-.04-.02-.04-.11-.02-.16.05-.13.35-.15.31.02v.02zm8.66 16.16c.06.13-.24.43-.39.57-6.57 6.24-12.47 13.17-18.57 19.79-.45.21-.98.14-1.46.18-1.45.06-2.91.27-4.36.16-.4-.06-.37-.28-.13-.62 5.03-6.66 10.83-12.74 17.06-18.31l2.16-2.03c.54-.54 1.3-.43 1.99-.34.82.08 1.64.3 2.46.35.32.03.68.03.99.09.13.03.22.08.25.15h0z"/></g><path d="M200.98,99.59c-.93.8-2.53.57-3.74.63-1.53.11-3.06-.02-4.59-.08-.95-.01-2.16.2-2.85-.52-.55-.62-.57-1.85-.56-2.69.01-.73.09-1.47.51-2.08.74-1.09,2.14-1.76,3.43-1.84.94-.06,1.88.12,2.81.26,1.41.26,2.94.41,4.11,1.31.56.49.82,1.25,1.08,1.98.34.95.66,2.23-.17,3.01l-.02.02Z" class="F"/><path d="M201.09,96.52c-.07.08-.2.09-.38.06-.29-.05-.6-.13-.89-.2-3.29-.78-6.94-1.47-10.15-.1-.66.3-.46-.44-.3-.89.44-1.14,1.56-1.89,2.69-2.24,1.29-.4,2.61-.12,3.94.08,1.41.26,3.02.44,4.18,1.35.41.37.67.88.87,1.43.06.16.13.37.05.51h0Z" class="B"/><path d="M200.59,96.2c.58,1.55,1.12,2.85-1.42,3.55-.77.21-1.86.05-2.66.06-1.6.03-3.62.25-5.15-.1-2.8-.63-1.87-4.54-.15-5.67.81-.53,1.84-.63,2.78-.61,2.16.03,5.76.49,6.62,2.76.19.51,1.02.29.83-.23-1.12-2.95-5.25-3.54-8.08-3.4-3.28.17-5.31,2.96-4.39,6.18.3,1.04.8,1.55,1.87,1.76,2.06.41,4.53.15,6.62.12,1.36-.02,3.3.19,4.16-1.15.69-1.06.21-2.45-.19-3.52-.19-.51-1.02-.29-.83.23Z" class="D"/><path d="M225.4,137.05c-.23,3.72-.58,8.02-3.1,10.92-.69.71-1.7,1.12-2.66.77-.4-.16-.95-.44-1.02-.78-.05-.19.19-.41.38-.55.44-.34.83-.75,1.15-1.2,1.74-2.65,2.53-6.04,2.46-9.23-.31-3.22-.47-6.64-1.85-9.64-.36-.71-.82-1.32-1.38-1.91-.17-.18-.49-.47-.38-.7.38-.48,1.49-.28,2.03,0,4.05,2.16,4.46,8.21,4.36,12.28v.03Z" class="E"/><path d="M225.39 140.59c.11.17.09.39.06.59l-.37 1.88c-.33 1.27-.69 2.55-1.34 3.72-.21.35-.57.28-.86.07-.61-.4-1.33-.72-1.95-1.13-.27-.2-.22-.53-.08-.81l.43-1c.37-.96.67-1.97.9-3.01.07-.48.39-.78.88-.75.59 0 1.19.08 1.76.18.19.03.42.09.54.25v.02z" class="G"/><g class="D"><path d="M169.77 149.43l2.15-1.5-2.14 1.49h0zm17.05-12.83c-.15 0-.09-.08 0 0h0zm29.19-3.27c.25.3.1.77.11 1.14-.04.76-.05 1.43-.9 1.47l-23.12 1.48c-1.41.03-3.1.12-4.53-.12-.36-.07-.62-.2-.68-.41-.12-.53 1.89-.92 2.3-.98 4.68-.7 10.78-1.02 15.5-1.47l10.57-1.21c.25-.03.59-.05.75.09h.01z"/></g><g class="B"><path d="M193.51,148.54c.18-.24.42-.48.67-.67"/><path d="M193.88 148.75s.02-.03.03-.04c.02-.02.04-.05.06-.07.05-.06.11-.12.16-.17.11-.11.22-.21.34-.3.18-.14.16-.46 0-.61-.19-.17-.42-.15-.61 0a4.1 4.1 0 0 0-.74.76c-.14.18-.03.49.15.59.23.12.44.04.59-.15h0zm-21.62-19.58c.44-3.56.59-6.94 2.13-10.23 1.41-3.02 4.7-6.63 8.5-5.61 5.95 1.6 6.16 14.36 6.23 18.86 0 .53.84.54.83 0-.09-5.16-.28-19.76-8.14-19.88-8.47-.12-9.66 10.94-10.4 16.86-.07.53.77.53.83 0h0z"/></g><g class="F"><path d="M158.38 129.77c.07 1.82-1.85 3.02-3.48 2.23-1.89-.85-2.02-3.84-.03-4.65 1.7-.77 3.48.62 3.51 2.39v.03zm-69.48-.84c-.06 2.5-3.09 3.43-4.51 1.34-.79-1.13-.58-2.8.58-3.62 1.82-1.4 4.1.04 3.94 2.25v.03z"/></g><g class="E"><path d="M219.62 120.09c1.87-.69 3.71.68 4.68 2.18.86 1.34 1.21 2.92 1.42 4.48.07.52.9.53.83 0-.27-2.05-.76-4.08-2.12-5.7-1.18-1.41-3.19-2.44-5.03-1.76-.5.18-.28.99.22.8h0zm-71.91-41.48l-25 21.3c-.69.19-1.44.06-2.16.09-.93 0-1.9-.07-2.8-.14-.28-.04-.68.02-.87-.16-.04-.08.07-.21.26-.36l25.66-20.19c.54-.46 1.24-.52 1.92-.49l2.61-.1c.07 0 .14-.01.2-.01.11 0 .17.01.19.04h0zm10.6 51.78c.15.43-.28.88-.56 1.17-.8.78-2.11.89-3.09.36-.43-.24-1.25-.83-.56-1.26.77-.57 3.58-1.03 4.2-.29v.02zm-69.34-1.47c-.03 2.12-2.48 3.29-4.13 1.92-.42-.33-.79-.8-.3-1.25.96-.94 2.37-1.47 3.73-1.37.4.01.73.23.7.68v.03z"/></g><g class="C"><path d="M162.89 57.4l2.72-2.19c.08-.06.56-.47.61-.44-.13-.05-.07.46-.07.48-.02.6 0 1.22.05 1.82.04.45.2.92.18 1.36-.01.35.19.36-.27.19-.21-.08-.41-.21-.6-.32l-2.77-1.53c-.5-.22-.94.52-.43.74.77.34 1.46.79 2.18 1.21.54.31 1.38.95 2.03.97 1.34.02.56-2.24.52-2.98-.04-.69.36-3.14-.97-2.82-.56.13-1.15.79-1.59 1.14l-2.18 1.76c-.43.35.18.95.61.61h0zM65.06 75.97c-.68-.49-1.55-1.21-2.44-.87-1.05.4-1.48 1.93-1.97 2.8s-1.97 2.3-1.6 3.45c.17.51.66.77 1.06 1.08l2.79 1.97c.97.6 1.72 1.46 2.75.85.6-.36 1.21-1.41 1.66-1.99.56-.73.98-1.58 1.45-2.38s.95-1.49.27-2.31c-.97-1.17-2.75-1.73-3.97-2.6-.45-.32-.88.42-.43.74 1.25.89 3.99 1.7 3.54 3.47-.23.91-1.33 2.25-1.89 2.95-.23.29-.53.72-.79.95-.63.54-.62.37-1.31.09-.95-.38-1.86-1.15-2.67-1.76-.29-.22-.74-.45-.97-.73-.85-1.02-.46-1.26.02-2.01l1.55-2.69c.83-1.19 1.48-1.04 2.53-.28.45.32.87-.42.43-.74z"/></g><use xlink:href="#P" class="D"/><use xlink:href="#Q" class="B"/><use xlink:href="#P" x="-2.75" class="C"/><g class="B"><use xlink:href="#Q" x="-2.74"/><path d="M69.66,150.52c-6.57-.44-11.42-6.27-9.78-12.87,1.38-5.57,6.59-8.45,12.13-7.85,13.72,1.48,10.21,20.75-2.35,20.72-.58,0-.58.89,0,.9,13.72.04,17.37-21.45,2.35-22.51-6.54-.46-12.36,3.02-13.24,9.86s4.22,12.2,10.89,12.65c.58.04.57-.86,0-.9Z"/></g><g class="D"><path d="M68.85,134.82c1.53-.05,3.22.49,3.46,2.22.35,2.58-2.28,3.55-4.42,3.22-.56-.09-.81.78-.24.86,2.56.4,5.52-.64,5.59-3.59.06-2.5-2.13-3.68-4.38-3.6-.58.02-.58.91,0,.9h0Z"/><path d="M67.38 140.91c1.07 2.08 2.61 4.07 3.46 6.26.21.53 1.07.3.86-.24-.87-2.26-2.44-4.31-3.55-6.47-.26-.51-1.04-.06-.77.45h0zm-1.75-6.09h9.4c.58 0 .58-.9 0-.9h-9.4c-.58 0-.58.9 0 .9h0zm0 4.09h9.4c.58 0 .58-.9 0-.9h-9.4c-.58 0-.58.9 0 .9h0z"/></g><g class="C"><path d="M185.26 67.78l1.16 1.74.51.84c.06.11.35.45.34.57-.02.55.83.55.86 0 .02-.51-.52-1.11-.77-1.53l-1.35-2.05c-.31-.45-1.06-.02-.74.43h0z"/><path d="M185.39 70.69c.24-.28.62-.38.93-.56s.6-.4.88-.63c.57-.45 1.25-.82 1.77-1.31.4-.38-.2-.98-.61-.61-.28.26-.63.4-.94.62-.33.23-.62.52-.94.77-.53.4-1.27.61-1.71 1.11-.36.41.24 1.02.61.61h0zM68.85 96.55c-.69.96-.81 2.34-.17 3.37a2.3 2.3 0 0 0 3.22.75c1.21-.77 1.3-2.26.71-3.47-.24-.51-.64-.95-1.19-1.12-.82-.25-1.56.16-2.31.44-.51.19-.29 1.02.23.83.88-.33 1.93-.91 2.5.2.45.9.4 2.05-.59 2.51-.84.39-1.71-.13-2.01-.96-.26-.72-.08-1.51.36-2.12.32-.45-.42-.88-.74-.43h0zm-38.3 16.84c-.45.62-.8 1.21-.69 2 .09.58.34 1.18.81 1.56 1.01.81 2.43.53 3.03-.6.52-.98.33-2.24-.53-2.95s-2.19-.7-2.79.33c-.28.48.46.91.74.43.36-.63 1.17-.47 1.61-.01s.51 1.18.23 1.75a1.12 1.12 0 0 1-1.89.25c-.67-.77-.3-1.61.21-2.32.32-.45-.42-.88-.74-.43h0z"/></g><path d="M35.07 156.27h160.65 44.17c.92 0 .92-1.43 0-1.43H35.07c-.92 0-.92 1.43 0 1.43h0z" class="F"/><path d="M41.32,128.34l.07.05s-.06-.01-.07-.05Z" class="E"/><g class="B"><path d="M17.45 131.7c1.69 1.87 3.63 3.48 5.62 5.02 1.75 1.35 3.81 2.39 5.41 3.91.4.38 1.01-.22.61-.61-1.61-1.54-3.65-2.55-5.41-3.91-1.99-1.54-3.93-3.15-5.62-5.02-.37-.41-.97.2-.61.61h0zm12.67-4.2c.68 1.2 1.32 2.51 2.17 3.6.34.43.94-.18.61-.61-.8-1.02-1.4-2.3-2.04-3.42-.27-.48-1.01-.05-.74.43h0zm-14.69 20.57c4.85.84 9.83 1.29 14.65 2.31.54.11.77-.71.23-.83-4.82-1.02-9.79-1.47-14.65-2.31-.54-.09-.77.73-.23.83h0z"/></g><path d="M84.26,55.32c-.67,1.47-.42,3.18,1.04,4.08,1.57.96,3.49.46,4.19-1.28.63-1.55.24-3.58-1.43-4.28-1.55-.65-3.08.06-3.8,1.49-.25.49.49.92.74.43.43-.85,1.06-1.36,2.06-1.29,1.52.12,2.11,1.66,1.75,2.99-.82,3.02-5.09,1.08-3.82-1.7.23-.5-.51-.93-.74-.43Z" class="C"/><g class="G"><path d="M24.8,78.47c.36-4.39,5.09-8.57,9.08-9.61,4.2-1.1,8.63-.04,12.42,1.86.68.34,1.28-.68.6-1.02-4.64-2.32-10.24-3.45-15.19-1.35-3.79,1.61-7.75,5.91-8.09,10.13-.06.76,1.12.76,1.19,0h0Z"/><path d="M40.28 79.66c.96-3.7 5.12-6.91 8.43-8.56 5.03-2.51 10.51-4 16.15-3.75.76.03.76-1.15 0-1.19-6.13-.27-12.32 1.42-17.69 4.39-3.34 1.85-7.06 5.03-8.04 8.79-.19.74.95 1.05 1.14.32h0zm26.55-7.39c0-8.62 8.2-11.91 14.18-16.37.6-.45.01-1.48-.6-1.02-6.4 4.78-14.75 8.26-14.76 17.39 0 .76 1.18.76 1.19 0h0z"/><path d="M84.92 63.58c-3.5-3.9-5.84-9.58-6.41-14.77s1.74-11.78 4.42-16.36c6.48-11.06 19.35-15.19 30.9-10.31.69.29 1.3-.73.6-1.02-5.28-2.23-10.77-3.46-16.44-1.7-6.3 1.96-11.76 5.81-15.41 11.36-3.27 4.96-5.9 12.09-5.25 18.04.6 5.51 3.04 11.47 6.76 15.61.51.57 1.35-.27.84-.84h0zm24.26-31.46c1.12-3.2 4.46-6.19 6.72-8.64 3.13-3.4 7.22-4.62 11.66-5.05.75-.07.76-1.26 0-1.19-4.49.44-8.36 1.44-11.77 4.65-2.71 2.56-6.5 6.32-7.75 9.91-.25.72.89 1.03 1.14.32h0zm-85.99 7.53c3.84-4.87 13.21-4.79 18.78-4.09 6.46.81 12.17 4.64 13.86 11.27.19.74 1.33.43 1.14-.32-1.74-6.86-7.44-11.06-14.16-12.05-6.09-.89-16.25-1-20.46 4.34-.47.59.37 1.44.84.84h0z"/><path d="M50.49,51.81c-.37-1.97,6.44-5.24,7.61-5.74,2.08-.89,4.37-1.58,6.65-1.34,1.92.2,3.55,1.22,5.44,1.56.75.13,1.07-1.01.32-1.14-2.77-.5-4.9-1.92-7.81-1.6-2.39.26-4.71,1.13-6.81,2.26-1.88,1.01-7.03,3.59-6.52,6.32.14.75,1.28.43,1.14-.32h0Z"/></g><g class="B"><path d="M182.45 32.66c-1.9.85-2.56 3.21-2.64 5.1-.03.55.83.55.86 0 .08-1.6.6-3.63 2.22-4.36.5-.23.07-.96-.43-.74h0zm-1.79 8.07v-.14c0-.11-.05-.23-.13-.3a.34.34 0 0 0-.14-.09c-.05-.03-.11-.04-.16-.04-.11 0-.23.04-.3.13s-.13.19-.13.3v.14c0 .11.05.23.13.3a.34.34 0 0 0 .14.09c.05.03.11.04.16.04.11 0 .23-.04.3-.13s.13-.19.13-.3h0zm-.86 5.13c-.06 4.42 1 8.71 2.04 12.95.13.53.96.31.83-.23-1.01-4.14-2.07-8.42-2.01-12.73 0-.55-.85-.55-.86 0h0zm64.82-13.01c.93.45 1.82.98 2.55 1.73.93.96 1.17 2.42 1.3 3.72.05.54.91.55.86 0-.12-1.23-.29-2.79-1.08-3.79-.84-1.06-1.98-1.81-3.19-2.39-.49-.24-.93.5-.43.74h0zm2.89 16.53c-.05.47-.16.96-.24 1.43l-.11.64c-.02.13.02.64-.07.74-.37.41.23 1.01.61.61s.28-1.09.37-1.64l.3-1.77c.06-.55-.79-.54-.86 0h0z"/></g><g class="C"><path d="M80.87 93.07c2.82.05 4.17-2.03 4.61-4.6h-.83c.43 2.89 1.47 4.09 4.35 4.67l-.19-.72c-.32.29-1.23.27-1.69.49-.54.26-.94.61-1.28 1.09-.75 1.07-.94 2.4-.99 3.67h.86c-.29-2.89-1.87-5.29-5.01-5.42-.55-.02-.55.83 0 .86 2.64.11 3.91 2.17 4.15 4.56.05.54.83.56.86 0 .05-1.36.28-3.11 1.57-3.91.63-.39 1.58-.24 2.14-.75a.44.44 0 0 0-.19-.72c-.98-.2-2.01-.31-2.75-1.08s-.85-1.96-1-2.99c-.06-.41-.76-.4-.83 0-.37 2.15-1.34 4.02-3.79 3.97-.55 0-.55.85 0 .86h0zm171.79-75.09c3.47-1.45 3.91-4.68 3.08-8.03l-.78.33c.69 1.17 1.41 2.52 2.65 3.21.68.38 1.5.52 2.28.53a8.65 8.65 0 0 0 .88-.05c.51-.06 1.55 0 1.27-.57-.45-.91-2.55 2.33-2.69 2.93-.4 1.69.07 3.44.71 5l.78-.33c-1.75-3.23-5-5.34-8.67-3.65-.5.23-.07.97.43.74 3.28-1.5 6.01.6 7.5 3.35.23.42.97.13.78-.33-1.04-2.55-1.33-5 1.03-6.9.41-.34 1.09-.62 1-1.23-.03-.22-.33-.37-.53-.3-1.54.57-3.39.83-4.77-.26-.85-.67-1.37-1.64-1.91-2.56-.25-.42-.9-.14-.78.33.7 2.8.57 5.7-2.48 6.97-.5.21-.28 1.04.23.83h0zm-10.68 89.73c2.21-.96 2.36-3.05 1.98-5.15l-.72.42c.35.29.53.89.85 1.24.34.37.74.68 1.21.85.95.33 1.8.05 2.73-.11l-.53-.3c-.06-.41-.88.48-1.04.68-.3.37-.48.76-.58 1.22-.24 1.05.03 2.13.39 3.12l.78-.33c-1.18-2.07-3.13-3.25-5.51-2.33-.51.2-.29 1.03.23.83 2-.78 3.55.19 4.54 1.93.23.41.95.14.78-.33-.5-1.36-.78-2.78.36-3.91.36-.35.95-.54.87-1.11-.03-.24-.32-.33-.53-.3-.9.15-1.68.5-2.58-.05-.67-.4-.82-1.24-1.37-1.71-.33-.28-.79-.01-.72.42.32 1.74.27 3.38-1.58 4.18-.5.22-.07.96.43.74h0zM47 80.78l-1.4-1.99c-.09-.14-.19-.37-.32-.47-.07-.14-.08-.15-.05-.02 0 .15.09.18.28.09.21.04.44.02.65.03a10.26 10.26 0 0 0 1.24-.01c.11 0 .49-.1.57-.04v-.07l-.21.33-1.47 2.2c-.27.48.47.91.74.43.35-.62.8-1.18 1.19-1.77.24-.36.73-.9.68-1.37-.05-.44-.43-.57-.82-.6-.68-.05-1.37.07-2.05.04-.63-.03-2.03-.14-1.63.92.13.33.4.65.6.94l1.27 1.78c.32.44 1.06.02.74-.43h0z"/></g><path d="M102.39,82.8c-.03,1.64-.8,3.28-2.02,4.39-2.64,2.51-7.02,1.59-9.23-1.08-1.03-1.12-1.73-2.41-1.69-3.9,0-.62.23-1.26.28-1.88.08-1.73,1.73-3.2,3.21-3.87,1.27-.55,2.76-.58,4.13-.26,3.01.64,5.37,3.49,5.31,6.57v.03Z" class="D"/><path d="M100.06 80.72c.11.21.15.45.17.68l.23 1.88c.08.66.36 1.17.89 1.55.17.14.34.31.38.53.07.33-.23.74-.48 1.1-.26.35-.56.75-.89.78-.54 0-.91-.53-1.36-.77-.99-.67-2.16.19-3.23.01-.56-.15-1.05-.73-1.54-1.09-.6-.5-1.43-.97-1.36-1.87l.03-1.89c.03-.57.31-.51.68-.22l1.09.83c.5.39.9.65 1.31.11.36-.42.58-.84.03-1.26l-1.37-1.06c-.15-.13-.43-.31-.34-.53.09-.14.32-.22.49-.28l1.6-.5c.24-.07.5-.12.75-.07.26.05.5.2.72.35l1.63 1.15c.22.15.43.32.55.56v.02z" class="C"/><path d="M160.4,38.2c-1.74.57-3.79.26-5.29-.81-2.63-1.82-2.99-5.67-1.46-8.35.71-1.36,1.66-2.48,3.11-2.95.6-.2,1.28-.21,1.9-.37,1.8-.49,3.9.8,4.96,2.25,2.45,3.57,1,8.8-3.19,10.22h-.03Z" class="D"/><path d="M154.74,32.55c.87,1.28,1.82,3.19,3.64,2.08.74-.45,1.37-1.23,1.98-1.84.76-.77,1.53-1.55,2.13-2.45.64-.95-.9-1.84-1.54-.9-.69,1.03-1.66,1.89-2.55,2.75-.19.18-.79,1-1.08.99-.18,0-.9-1.32-1.05-1.53-.64-.94-2.18-.05-1.54.9h0Z" class="C"/><path d="M271.67,95.11c.02.33.18.65.2.98.01.23.19.43.43.43.22,0,.44-.2.43-.43-.02-.34-.17-.65-.2-.98-.02-.23-.18-.43-.43-.43-.22,0-.44.2-.43.43h0Z" class="B"/><path d="M275.03,99.2s-.05.1-.04.15" class="C"/><path d="M264.4,102.76c-3.15,2.15-7.71,1.18-9.29-2.41-1.62-3.37.7-7.15,4.08-8.25,2.04-.92,4.43-.71,6.25.68,1.29.93,1.87,2.47,1.97,4.02.23,2.32-1.16,4.69-2.99,5.94l-.02.02Z" class="D"/><g class="C"><path d="M265.13,100.23c.09-.05.15-.24.18-.36.36-1.33,0-2.91-.91-4-.23-.32-.56-.58-.79-.9-.21-.3-.21-.75-.4-.85-.16-.1-.51.04-.82.01-.21-.02-.4-.08-.61-.16-1.67-.66-3.6-.48-4.69.66-.38.4.06.48.41.51.7.06,1.24.38,1.56,1.02.26.61.57.86,1.24.85.97.04,1.42.58,1.81,1.41.17.31.49.44.83.45.75,0,1.4.28,1.76.93.11.15.23.46.43.43h.01Z"/><path d="M261.34 96.59c-.74 1.19-1.34 2.47-2.21 3.58-.24.31-.73.91-1.2.76-.41-.13-.35-.81-.32-1.13.03-.28-.41-.28-.44 0-.05.43-.04.93.25 1.29.24.29.62.36.97.25.53-.18.89-.61 1.21-1.04.39-.51.72-1.06 1.04-1.61l1.09-1.87c.15-.24-.23-.47-.38-.22h0z"/></g><path d="M242.34,47.18c.57,0,.57-.89,0-.89s-.57.89,0,.89h0Z" class="D"/></g></g><defs ><path id="B" d="M117 58.46c-.34-1.07-.55-2.37-1.83-2.58-1.69-.28-3.97 1.16-5.52 1.7-.91.31-2.09.47-2.25 1.59-.09.6.25 1.3.4 1.86l1.18 3.92c.32.87.48 2.01 1.5 2.27.65.17 1.44-.19 2.07-.31 1.26-.24 2.38-.61 3.58-1.07.95-.36 2.45-.55 2.66-1.74.29-1.65-1.32-4.05-1.8-5.63-.16-.53-.98-.3-.83.23.28.93.65 1.83.99 2.74.55 1.44 1.13 2.38-.57 3.32-.91.51-2.11.88-3.13 1.14-.57.15-1.28.3-1.85.33-.95.04-1.12-.03-1.58-.83-.81-1.4-2.37-5.58-.87-6.74.78-.61 2.52-.89 3.46-1.25.4-.15.88-.43 1.31-.47 1.86-.16 1.88.67 2.23 1.76.17.52.99.3.83-.23z"/><path id="C" d="M64.29 149.25c.02-.78-.11-1.56-.09-2.34.02-.62.21-1.35-.7-1.31l-5.08-.2c-4.28-.12-8.53-.91-12.81-1l-4.05.1c-.52.05-1.01.25-1.53.3-.68.08-1.38.16-2.07.2-.86.06-1.7.22-2.56.17-2.11-.16-2.26.83-2.24 2.66 0 1.42-.13 2.88.22 4.27.28.84 1.25 1.08 2.03 1.25 2.27.33 4.55.35 6.83.51l6.26.32c2.35.05 4.7-.05 7.05-.17 2.74-.22 5.65-.33 8.09-1.75.67-.41.54-1.16.56-1.87.03-.37.07-.74.06-1.11v-.03z"/><path id="D" d="M64.71 149.25l-.09-2.34c0-.36.1-.76-.04-1.1-.36-.92-1.68-.66-2.45-.69l-9.35-.58-9.39-.51c-2.77.08-5.48.71-8.26.7-1.61 0-2.32.84-2.39 2.4v3.56c.08 1.08.21 2.11 1.25 2.66.88.47 1.96.52 2.93.61l4.94.31 9.39.34c3.13-.07 6.35-.1 9.4-.77 1.09-.24 2.72-.6 3.51-1.44.7-.74.54-2.22.54-3.15 0-.55-.86-.55-.86 0l-.07 1.41v.53c-.08.61-.42.76-.93 1.02-1.05.54-2.25.8-3.4.99-2.31.37-4.68.45-7.01.52-5.02.17-10.12-.16-15.12-.58-.98-.08-2.55-.04-3.27-.84-.77-.85-.46-2.85-.45-3.94 0-.66-.15-1.66.19-2.27.44-.78 1.62-.47 2.35-.5 2.25-.1 4.47-.64 6.7-.7 2.49-.07 4.93 0 7.42.23 2.85.28 5.68.59 8.54.7l4.1.17c.8.03.87.21.85.91-.02.78.09 1.56.09 2.34 0 .55.86.55.86 0z"/><path id="E" d="M63.74 144.76c-.66-.34-1.45-.51-2.19-.66l-3.88-.63-4.82-.56c-.91-.03-1.82 0-2.74 0-3.25-.04-6.52.06-9.77.28-1.68.17-7.47.34-7.03 2.83.52 1.53 4.46 1.37 5.87 1.52 3.9.21 7.81.53 11.72.51 2.93-.09 5.88-.16 8.78-.6.93-.11 5.97-1.27 4.08-2.67h-.02z"/><path id="F" d="M63.95 144.39c-1.21-.57-2.56-.78-3.88-1.01l-4.45-.62c-3.26-.39-6.55-.33-9.82-.25l-7.24.4c-1.54.15-3.33.31-4.66 1.17-1.01.65-1.49 1.98-.43 2.83 1.28 1.03 3.43.91 4.97.99 6.27.33 12.49.81 18.76.24 1.96-.18 3.96-.41 5.79-1.2.99-.43 2.48-1.66.96-2.57-.47-.28-.91.46-.43.74.92.55-2.1 1.49-2.48 1.59-1.8.48-3.69.61-5.55.72-5.33.32-10.61.02-15.92-.3-1.53-.09-3.16-.04-4.64-.46-.58-.16-1.46-.5-1.14-1.26.25-.58 1.04-.87 1.58-1.05 1.28-.43 2.66-.55 4-.66 2.14-.18 4.29-.28 6.43-.33 2.95-.07 5.96-.17 8.89.14 1.54.17 3.09.36 4.62.61 1.39.23 2.92.4 4.2 1.01.5.23.93-.5.43-.74z"/><path id="G" d="M54.76 145.22c-.15-.13-.42-.2-.64-.25-.86-.2-1.73-.3-2.62-.41-1.91-.21-3.82-.1-5.74-.02-.77.09-3.13.05-3.18 1.05.13.77 1.82.63 2.44.71l4.35.19c1.5-.04 3.02-.03 4.48-.39.36-.1 1.32-.39.93-.87h-.02z"/><path id="H" d="M36.52 149c-.04.15-.09.29-.09.44a.75.75 0 0 0 .05.26c0 .01 0 .03.01.04 0 .03 0 .03 0 0 .01-.04.02-.07 0-.01-.07.16-.1.33-.06.51 0 .03.01.05.02.08l.04.1s.02.04 0 0c-.02-.06 0 .01 0 .03 0 .03.01.05.02.08.01.05 0 .02 0-.01v.07.16c0 .11 0 .21-.02.32-.02.21-.03.42.02.63a.44.44 0 0 0 .53.3.44.44 0 0 0 .3-.53c0-.01-.01-.03-.01-.05v.04-.13c0-.09.01-.19.02-.28.02-.23.02-.45-.01-.68a1.26 1.26 0 0 0-.1-.33c-.02-.05 0-.01 0 .02 0 .02-.01.07 0 .03l.06-.16c.04-.16.03-.34-.02-.49-.01-.04-.03-.05-.01-.01v-.04.01c.03-.06.04-.13.05-.19.06-.22-.07-.48-.3-.53s-.46.07-.53.3h0z"/><path id="I" d="M42.04 149.29c-.34.36-.2.98-.14 1.43 0 .03 0 .03 0 0 0 .03 0 .06.01.09 0 .06.01.12.02.19l.03.33.04.66c.01.22.19.44.43.43s.43-.19.43-.43v-.05c0-.22-.2-.44-.43-.43a.44.44 0 0 0-.43.43v.05h.86l-.09-1.2c0-.08-.02-.15-.03-.23 0-.02-.02-.14 0-.05l-.03-.28c-.01-.09-.01-.19-.01-.28v-.13c0-.08 0-.06-.03.07-.04.05-.05.05-.01.02.15-.16.17-.45 0-.61s-.44-.17-.61 0h0z"/><path id="J" d="M46.81 149.78c0 .4.03.79.08 1.19.01.12 0-.07 0 .05v.15l.01.27.09.64c.04.21.32.37.53.3.23-.08.34-.29.3-.53l-.05-.28c.01.08 0-.03 0-.05 0-.04 0-.08-.01-.12l-.03-.62c0-.04-.01-.08-.02-.12.01.09 0-.03 0-.05l-.02-.29v-.54c0-.22-.2-.44-.43-.43s-.42.19-.43.43h0z"/><path id="K" d="M51.93 149.75c0 .4-.05.8.02 1.2 0 .05.02.1.02.15.01.09 0-.05 0 .06 0 .09.02.18.03.28l.01.58c0 .22.2.44.43.43s.42-.19.43-.43c.01-.4-.02-.8-.08-1.2 0-.02-.02-.16-.01-.07v-.13-.28l.02-.58c0-.22-.2-.44-.43-.43a.44.44 0 0 0-.43.43h0z"/><path id="L" d="M56.53 149.72c-.01.23-.03.46.02.69.01.04.07.21.08.21.01.03.01.02 0-.04s-.02-.07-.01-.04v.1.35c0 .2 0 .39.04.59l.03.15c0 .04 0-.12 0-.05v.03.03c0-.15.09-.22.3-.21.28-.02.37-.06.28-.13-.18-.14-.49-.03-.59.15-.12.23-.04.44.15.59.17.13.42.09.57-.05a.51.51 0 0 0 .14-.39c0-.1-.02-.19-.04-.29 0-.03-.01-.05-.02-.08-.02-.07 0 .07 0-.03-.02-.3.04-.62-.02-.92 0-.04-.02-.15-.06-.15-.01-.03-.01-.02 0 .03v-.03s-.04-.09-.03-.1c-.01 0 0 .09 0 0 0-.13 0-.26.02-.4.01-.22-.21-.44-.43-.43-.24.01-.41.19-.43.43h0z"/><path id="M" d="M61.18 148.52c-.12.26-.11.48-.06.76 0 .03 0 .05.01.08-.01-.04-.01-.04 0 .02v.14.34c0 .45 0 .9.1 1.34.05.22.32.37.53.3.23-.08.35-.29.3-.53l-.03-.16c0-.02 0-.04-.01-.07 0 .03 0 .03 0 0 0-.1-.02-.19-.02-.29v-.56-.56c0-.11-.02-.21-.04-.32 0-.05 0-.05 0 0v-.04c0-.05 0-.05-.01 0 .01-.05.01-.05 0-.01.1-.2.06-.47-.15-.59-.19-.1-.48-.06-.59.15h0z"/><path id="N" d="M65.02 141.98c-.12.26-.11.48-.06.76a.22.22 0 0 0 .01.08c-.01-.04-.01-.04 0 .02v.14.34c0 .45 0 .9.1 1.34.05.22.32.37.53.3.23-.08.35-.29.3-.53l-.03-.16c0-.02 0-.04-.01-.07 0 .03 0 .03 0 0 0-.1-.02-.19-.02-.29v-.56-.56c0-.11-.02-.21-.04-.32 0-.05 0-.05 0 0v-.04c0-.05 0-.05-.01 0 .01-.05.01-.05 0-.01.1-.2.06-.47-.15-.59-.19-.1-.48-.06-.59.15h0z"/><path id="O" d="M99.67 116.25c.66-4.21-1.91-3.38-5.27-3.44-2.64-.04-5.31 0-7.94.14-1.04.06-2.21-.08-2.64 1.04-.87 2.25 1.41 3.81 3.25 3.79 3.15-.03 6.38-.48 9.52-.72.8-.06 2.48.15 3.04-.71.3-.46-.44-.89-.74-.43-.34.52-3.28.38-3.89.42l-3.35.2c-1.36.1-3.25.64-4.58.39-1.56-.29-3.26-1.45-1.81-2.71 1.34-1.16 5.44-.55 7.21-.57 2.19-.02 6.91-1.01 6.38 2.37-.08.54.74.77.83.23z"/><path id="P" d="M83.82,147.93c3.66-4.45,4.23-11.97.62-16.59-.38-.46-.85-.84-1.33-1.19-1.26-.91-2.47-1.86-3.89-2.53-.79-.36-1.64-.5-2.49-.63-9.15-1.51-17.03,3.31-17.42,12.94-.09,2.71.56,5.4,2.14,7.57.72,1.02,1.39,2.19,2.48,2.88,6.19,5.15,14.99,3.71,19.88-2.43l.02-.02Z"/><path id="Q" d="M84.2,148.15c4.79-6.4,4.09-15.31-2.76-19.76-5.92-3.84-15.22-2.58-19.66,3.04-4.62,5.85-3.73,15.19,2.36,19.67s15.15,3.29,19.99-2.86c.35-.45-.28-1.09-.63-.63-4.16,5.29-11.61,7.08-17.52,3.67-6.67-3.84-8.18-13.31-3.46-19.28,3.85-4.87,12.03-6.42,17.5-3.46,7.25,3.92,8.19,12.77,3.41,19.15-.35.46.43.91.77.45Z"/></defs></svg>